<svg width="31" height="89" viewBox="0 0 31 89" fill="none" xmlns="http://www.w3.org/2000/svg">
<path d="M29.1684 1.15433C19.4773 1.42612 21.2631 1.05843 13.4225 8.60734C11.6318 10.3314 8.92418 12.4284 8.31058 15.4915C7.40509 20.0117 12.9479 33.687 16.5767 28.6539C18.922 25.4012 18.4702 19.8143 14.9026 18.3367C9.05199 15.9135 4.34806 23.0779 2.52924 29.2687C0.526809 36.0844 2.2085 43.5404 6.92781 48.0914C9.08374 50.1705 12.5614 49.229 10.6538 44.8139C6.73028 35.7327 2.19244 46.7489 2.80682 52.7821C3.91344 63.649 13.2472 77.9248 21.9799 75.6608C24.7102 74.953 23.8178 73.3741 22.672 72.2059C21.5093 71.0204 18.5859 66.6917 19.3707 68.3353C20.7429 71.2087 22.4837 72.3649 24.4283 74.0522C26.9366 76.2286 21.5565 80.9841 19.998 82.6815C19.1798 83.5725 17.991 85.5684 17.7697 87.0216C17.3327 89.8912 20.4873 82.3936 21.0518 79.5754" stroke="#00ADB5" stroke-opacity="0.2" stroke-width="1.89164" stroke-linecap="round" stroke-linejoin="round"/>
</svg>
