<svg width="208" height="249" viewBox="0 0 208 249" fill="none" xmlns="http://www.w3.org/2000/svg">
<path d="M69.4077 156.936C68.9125 157.009 68.3299 157.047 68.212 157.637C68.1206 158.094 68.1552 158.564 68.4291 158.961C68.8971 159.638 69.5925 160.034 70.43 159.894C71.1789 159.769 72.2074 159.091 72.2074 158.248C72.2074 157.773 71.8652 157.294 71.582 156.939C71.2785 156.558 71.0162 156.157 70.6342 155.845C70.1188 155.425 69.7026 155.383 69.2392 155.879C68.9856 156.15 68.7458 156.52 68.6348 156.876C68.5801 157.051 68.6203 157.191 68.6203 157.366C68.6203 157.6 68.5769 157.255 68.6203 157.14" stroke="#00ADB5" stroke-opacity="0.5" stroke-width="0.378328" stroke-linecap="round" stroke-linejoin="round"/>
<path d="M71.9739 158.274C72.3953 158.648 72.7525 158.987 73.4976 159.005C74.0193 159.018 74.5408 158.888 75.0297 158.748C75.3797 158.647 76.5019 158.116 75.5926 158.073" stroke="#00ADB5" stroke-opacity="0.5" stroke-width="0.378328" stroke-linecap="round" stroke-linejoin="round"/>
<path d="M76.32 155.011C75.7639 155.625 74.9964 156.828 75.2847 157.751C75.386 158.075 75.5333 158.293 75.7237 158.57C76.1071 159.128 76.7013 158.954 77.2402 158.809C77.631 158.703 78.0952 158.37 78.2448 157.992C78.4512 157.47 78.021 156.654 77.6615 156.294C77.2601 155.893 76.9422 155.404 76.495 155.053C76.376 154.959 76.2856 154.858 76.1304 154.893C75.956 154.931 75.8841 155.098 76.1158 155.098" stroke="#00ADB5" stroke-opacity="0.5" stroke-width="0.378328" stroke-linecap="round" stroke-linejoin="round"/>
<path d="M115.632 70.8627C115.136 70.9359 114.554 70.9746 114.436 71.5642C114.344 72.0212 114.379 72.4915 114.653 72.8879C115.121 73.5653 115.816 73.9607 116.654 73.8211C117.403 73.6963 118.431 73.0177 118.431 72.175C118.431 71.6998 118.089 71.2215 117.806 70.8659C117.502 70.4847 117.24 70.084 116.858 69.7723C116.343 69.3519 115.926 69.3106 115.463 69.8063C115.21 70.0776 114.97 70.4476 114.859 70.8027C114.804 70.9778 114.844 71.1181 114.844 71.2936C114.844 71.5276 114.801 71.1826 114.844 71.0668" stroke="#00ADB5" stroke-opacity="0.5" stroke-width="0.378328" stroke-linecap="round" stroke-linejoin="round"/>
<path d="M118.198 72.2017C118.62 72.5758 118.977 72.9142 119.722 72.9325C120.244 72.9453 120.765 72.8151 121.254 72.6749C121.604 72.5746 122.726 72.0431 121.817 72.0001" stroke="#00ADB5" stroke-opacity="0.5" stroke-width="0.378328" stroke-linecap="round" stroke-linejoin="round"/>
<path d="M122.543 68.9379C121.987 69.5519 121.22 70.7552 121.508 71.6776C121.609 72.002 121.757 72.2204 121.947 72.4974C122.331 73.0551 122.925 72.8813 123.464 72.7356C123.854 72.63 124.319 72.2974 124.468 71.919C124.675 71.3969 124.244 70.5806 123.885 70.2211C123.484 69.8197 123.166 69.3314 122.718 68.98C122.599 68.8865 122.509 68.7851 122.354 68.8196C122.179 68.8584 122.108 69.0254 122.339 69.0254" stroke="#00ADB5" stroke-opacity="0.5" stroke-width="0.378328" stroke-linecap="round" stroke-linejoin="round"/>
<path d="M72.9788 53.0105C75.8339 51.6502 78.1419 49.4012 80.4627 47.2803C82.2867 45.6134 84.1996 43.9663 86.2126 42.5278C86.6098 42.244 87.171 41.6728 87.7079 41.9162C88.24 42.1575 88.5467 42.8143 88.9673 43.2033C90.0029 44.1611 90.9341 45.3316 91.7856 46.4572C92.7229 47.6963 91.3173 48.3822 90.4484 49.1934C89.4614 50.115 88.5188 51.0653 87.4406 51.8785C86.4159 52.6514 85.5925 53.7167 84.6543 54.5917C83.2246 55.9253 81.8873 57.345 80.4617 58.6799C79.613 59.4746 78.6393 60.1233 77.8221 60.9462C77.5357 61.2346 77.2709 61.6157 76.9406 61.8558C76.6754 62.0486 76.3083 61.307 76.2139 61.1674C75.4644 60.0589 74.3034 59.3006 73.5695 58.1411C73.1081 57.4121 72.7976 56.5125 72.2453 55.8467C71.9816 55.5289 71.3225 54.8136 71.6113 54.3493C71.9062 53.8753 72.7434 53.6482 73.2001 53.3087C73.5561 53.0441 73.9889 52.7174 74.3941 52.5334C74.6885 52.3996 74.9776 52.1626 75.241 51.98C75.934 51.4996 75.1996 51.705 74.7308 51.8835" stroke="#00ADB5" stroke-opacity="0.5" stroke-width="0.378328" stroke-linecap="round" stroke-linejoin="round"/>
<path d="M73.4154 55.1867C75.1535 56.2627 76.7126 57.8198 78.0695 59.3555C78.1038 59.3944 78.4341 59.6246 78.3837 59.7097C78.2865 59.8742 77.1584 59.1318 77.0506 59.0574" stroke="#00ADB5" stroke-opacity="0.5" stroke-width="0.378328" stroke-linecap="round" stroke-linejoin="round"/>
<path d="M75.1386 53.6312C76.5478 54.0347 77.3876 54.8025 78.5253 55.624C79.0321 55.9899 79.5483 56.3201 80.0032 56.7504C80.2168 56.9525 80.3689 57.2186 80.5663 57.4364C80.8368 57.7351 79.7321 57.0898 79.602 57.0154" stroke="#00ADB5" stroke-opacity="0.5" stroke-width="0.378328" stroke-linecap="round" stroke-linejoin="round"/>
<path d="M77.1859 52.4253C78.1721 53.3152 79.1633 54.1929 80.1804 55.0471C80.5667 55.3716 81.0054 55.6694 81.339 56.0516C81.9314 56.7301 81.1556 55.8497 80.8921 55.6012" stroke="#00ADB5" stroke-opacity="0.5" stroke-width="0.378328" stroke-linecap="round" stroke-linejoin="round"/>
<path d="M78.5669 51.577C79.2984 52.0217 80.0624 52.4526 80.6817 53.0522C80.9358 53.2982 81.1466 53.5881 81.4182 53.816C81.7528 54.0967 82.0459 54.4242 82.3827 54.697C82.8623 55.0855 82.9345 55.199 82.3647 54.7113" stroke="#00ADB5" stroke-opacity="0.5" stroke-width="0.378328" stroke-linecap="round" stroke-linejoin="round"/>
<path d="M80.3486 50.271C81.1556 50.9025 81.9025 51.5438 82.5772 52.3142C82.8761 52.6554 83.1169 53.0492 83.4962 53.311C83.8437 53.5508 84.0872 53.6201 83.6805 53.2304" stroke="#00ADB5" stroke-opacity="0.5" stroke-width="0.378328" stroke-linecap="round" stroke-linejoin="round"/>
<path d="M82.0632 48.9401C82.7737 49.474 83.4742 49.9613 84.0417 50.649C84.3016 50.9638 84.5067 51.3256 84.7968 51.6159C85.386 52.2055 84.9808 51.9083 84.5546 51.5081" stroke="#00ADB5" stroke-opacity="0.5" stroke-width="0.378328" stroke-linecap="round" stroke-linejoin="round"/>
<path d="M83.6455 47.5593C84.643 48.5135 85.4785 49.6312 86.4778 50.5738C87.1506 51.2084 86.1866 50.1914 86.0288 50.0108" stroke="#00ADB5" stroke-opacity="0.5" stroke-width="0.378328" stroke-linecap="round" stroke-linejoin="round"/>
<path d="M85.5763 46.4615C86.4159 46.1187 87.2869 45.71 87.7381 44.8723C87.8625 44.6413 88.0228 44.4402 88.074 44.1799C88.1442 43.8224 88.1305 43.9757 87.8655 44.2071" stroke="#00ADB5" stroke-opacity="0.5" stroke-width="0.378328" stroke-linecap="round" stroke-linejoin="round"/>
<path d="M86.9275 47.6144C87.5932 46.9967 88.3373 46.322 88.825 45.5379C89.0683 45.1468 89.5317 44.6694 88.8839 45.2351" stroke="#00ADB5" stroke-opacity="0.5" stroke-width="0.378328" stroke-linecap="round" stroke-linejoin="round"/>
<path d="M89.0618 48.9092C89.6683 48.2502 90.208 47.6372 90.7663 46.948C90.9466 46.7253 91.4962 46.4364 90.835 46.6131" stroke="#00ADB5" stroke-opacity="0.5" stroke-width="0.378328" stroke-linecap="round" stroke-linejoin="round"/>
<path d="M88.5796 48.5763C89.2145 48.0322 89.9324 47.3988 90.4355 46.7119C90.5697 46.5287 90.6729 46.3245 90.7958 46.1341C91.0017 45.8152 91.0147 45.9229 90.7025 45.9557" stroke="#00ADB5" stroke-opacity="0.5" stroke-width="0.378328" stroke-linecap="round" stroke-linejoin="round"/>
<path d="M75.1285 56.2858C78.2913 55.001 79.0717 51.5141 81.6491 49.5421C81.9626 49.3023 82.2173 49.0356 82.583 48.8696C82.8274 48.7585 83.1293 48.7054 83.3519 48.5633C83.4876 48.4766 84.6149 47.6155 83.8315 47.9712" stroke="#00ADB5" stroke-opacity="0.5" stroke-width="0.378328" stroke-linecap="round" stroke-linejoin="round"/>
<path d="M73.656 55.3532C74.0109 54.9216 74.3261 54.5522 74.7763 54.2401C74.8502 54.1889 74.9641 54.1803 75.0249 54.1119C75.1452 53.9764 75.3275 53.7784 75.3739 53.6037C75.5565 52.9156 76.4488 53.0429 76.9227 52.6979C77.3734 52.3696 77.8074 52.0374 78.2669 51.7131C78.7732 51.3559 79.0074 51.0425 79.4141 50.5848C79.7876 50.1643 80.1501 49.7389 80.5455 49.3408C80.8689 49.0152 81.3772 48.719 81.583 48.3021C81.8154 47.8317 82.4092 47.2933 82.9437 47.3805C83.1273 47.4105 84.4762 48.1921 83.5945 47.6923" stroke="#00ADB5" stroke-opacity="0.5" stroke-width="0.378328" stroke-linecap="round" stroke-linejoin="round"/>
<path d="M76.5188 57.0351C78.8955 55.7814 80.2145 53.0481 81.8198 50.9833C82.411 50.2228 83.256 49.7175 83.8749 48.9702C84.1397 48.6506 84.7243 48.3111 84.0444 48.3166" stroke="#00ADB5" stroke-opacity="0.5" stroke-width="0.378328" stroke-linecap="round" stroke-linejoin="round"/>
<path d="M77.367 57.8096C79.5205 56.4856 80.8995 54.0224 82.4663 52.0703C83.1791 51.1823 83.8671 50.2756 84.5887 49.3947C84.9177 48.9931 85.4913 48.7423 84.7552 49.1535" stroke="#00ADB5" stroke-opacity="0.5" stroke-width="0.378328" stroke-linecap="round" stroke-linejoin="round"/>
<path d="M78.215 59.1912C79.5588 57.8807 80.6438 56.4666 81.7433 54.9507C82.4119 54.029 82.9899 52.9929 83.7749 52.1629C84.2254 51.6868 84.5722 51.1291 84.9812 50.6243C85.1459 50.4209 85.2596 50.184 85.4289 49.9823C85.8103 49.528 85.5444 49.939 85.2788 50.1855" stroke="#00ADB5" stroke-opacity="0.5" stroke-width="0.378328" stroke-linecap="round" stroke-linejoin="round"/>
<path d="M78.5311 59.7653C79.1998 59.1102 80.1797 58.4797 80.6258 57.6299C80.7878 57.3214 81.1886 56.5765 81.4697 56.3877C81.8413 56.1382 82.0183 55.6073 82.2888 55.2734C82.5705 54.9257 82.8462 54.5864 83.1518 54.2557C83.4384 53.9455 83.5302 53.4012 83.885 53.1343C84.2802 52.837 84.4725 52.3768 84.7877 52.0219C85.0606 51.7147 85.5801 51.3963 85.9186 51.1616C86.1062 51.0316 86.2372 50.8544 86.4499 50.7578C86.8811 50.5619 86.6013 50.6622 86.2066 50.6474" stroke="#00ADB5" stroke-opacity="0.5" stroke-width="0.378328" stroke-linecap="round" stroke-linejoin="round"/>
<path d="M85.5219 46.707C86.0752 46.8528 86.7573 46.953 87.2614 47.2545C87.5868 47.449 87.8701 47.6444 87.2776 47.2901" stroke="#00ADB5" stroke-opacity="0.5" stroke-width="0.378328" stroke-linecap="round" stroke-linejoin="round"/>
<path d="M86.0959 45.7834C86.8851 45.9896 87.4428 46.2207 88.0864 46.6403C88.5071 46.9146 88.4396 46.8387 88.0013 46.5746" stroke="#00ADB5" stroke-opacity="0.5" stroke-width="0.378328" stroke-linecap="round" stroke-linejoin="round"/>
<path d="M87.053 44.8516C87.7307 45.2327 88.3881 45.6658 89.0889 45.9976C89.501 46.1928 89.2847 46.1791 88.9666 46.0255" stroke="#00ADB5" stroke-opacity="0.5" stroke-width="0.378328" stroke-linecap="round" stroke-linejoin="round"/>
<path d="M87.599 44.1072C88.3115 44.4317 88.9684 44.7548 89.6245 45.1629C89.9237 45.349 89.6521 45.361 89.4252 45.2104" stroke="#00ADB5" stroke-opacity="0.5" stroke-width="0.378328" stroke-linecap="round" stroke-linejoin="round"/>
<path d="M85.8719 46.3826C86.4103 45.7425 86.9503 45.1361 87.4405 44.48C87.5797 44.2936 88.4279 43.2559 88.0614 43.787" stroke="#00ADB5" stroke-opacity="0.5" stroke-width="0.378328" stroke-linecap="round" stroke-linejoin="round"/>
<path d="M86.4366 47.5062C87.137 46.887 88.1465 46.0613 88.3726 45.1362C88.4391 44.8639 88.5834 44.5918 88.7949 44.4045C89.0094 44.2145 89.2336 44.1287 88.9132 44.4489" stroke="#00ADB5" stroke-opacity="0.5" stroke-width="0.378328" stroke-linecap="round" stroke-linejoin="round"/>
<path d="M85.8751 47.4852C86.6221 46.6807 87.2604 46.14 87.6824 45.149C87.792 44.8917 87.9176 44.6784 88.0975 44.4758C88.2882 44.2612 88.5618 44.0602 88.1937 44.4444" stroke="#00ADB5" stroke-opacity="0.5" stroke-width="0.378328" stroke-linecap="round" stroke-linejoin="round"/>
<path d="M88.6503 47.8813C88.9943 48.0994 89.3391 48.3015 89.6966 48.4829C89.8442 48.5579 89.6616 48.4128 89.5988 48.3893" stroke="#00ADB5" stroke-opacity="0.5" stroke-width="0.378328" stroke-linecap="round" stroke-linejoin="round"/>
<path d="M89.3205 46.8041C89.3438 46.8238 90.6959 47.9824 90.4561 47.724" stroke="#00ADB5" stroke-opacity="0.5" stroke-width="0.378328" stroke-linecap="round" stroke-linejoin="round"/>
<path d="M90.1239 46.384C90.4221 46.671 91.3356 47.5102 91.014 47.2497" stroke="#00ADB5" stroke-opacity="0.5" stroke-width="0.378328" stroke-linecap="round" stroke-linejoin="round"/>
<path d="M88.2509 48.3389C88.7452 47.8786 89.8292 46.9667 90.0948 46.2592C90.1995 45.9803 90.6789 45.6221 90.2281 46.0054" stroke="#00ADB5" stroke-opacity="0.5" stroke-width="0.378328" stroke-linecap="round" stroke-linejoin="round"/>
<path d="M88.3135 48.4763C88.3605 48.5139 89.3059 49.5322 89.5075 49.0384C89.6104 48.7864 89.7444 48.4581 89.9968 48.3192C90.4397 48.0755 90.5214 47.3079 90.9748 47.1021C91.4891 46.8685 91.4411 46.4768 90.9621 46.3379C90.7739 46.2833 90.9224 45.9124 90.7269 45.9416C90.548 45.9682 90.4533 45.9022 90.2533 45.9389" stroke="#00ADB5" stroke-opacity="0.5" stroke-width="0.378328" stroke-linecap="round" stroke-linejoin="round"/>
<path d="M85.4595 46.5697C85.7837 47.1893 85.845 47.414 86.3682 47.6724C86.5094 47.7422 86.6938 47.6454 86.8009 47.6998C87.013 47.8075 87.4321 47.8097 87.5904 47.6143C87.9086 47.2214 88.0258 46.9679 88.5134 46.7289C88.8211 46.5781 89.0685 46.2223 89.2108 45.9274C89.3673 45.6033 89.6491 45.3591 89.8142 45.0338C89.8846 44.8952 89.3168 44.5384 89.3117 44.2988C89.3103 44.2308 88.6361 44.2288 88.524 44.1718C88.3881 44.1028 88.3258 44.0056 88.2606 43.862C88.1653 43.6523 87.9964 43.9127 87.7404 43.9326" stroke="#00ADB5" stroke-opacity="0.5" stroke-width="0.378328" stroke-linecap="round" stroke-linejoin="round"/>
<path d="M74.2306 54.4299C74.9965 54.721 75.6643 55.0964 76.3539 55.5118C76.9525 55.8724 77.629 56.0645 78.2238 56.4141C78.6473 56.663 79.0868 57.2311 79.3993 57.6042C79.5035 57.7286 79.5812 57.8449 79.6551 57.985C79.8245 58.3065 79.6482 57.5293 79.6303 57.4441" stroke="#00ADB5" stroke-opacity="0.5" stroke-width="0.378328" stroke-linecap="round" stroke-linejoin="round"/>
<path d="M81.6264 48.5866C81.8388 48.8096 82.6988 50.0406 82.5292 49.1153" stroke="#00ADB5" stroke-opacity="0.5" stroke-width="0.378328" stroke-linecap="round" stroke-linejoin="round"/>
<path d="M83.3958 134.039C83.4869 134.508 83.7186 134.813 83.8982 135.239C84.0205 135.53 84.2491 135.754 84.3764 136.039C84.5139 136.347 84.7198 136.709 84.9116 136.983C85.0759 137.217 85.1836 137.44 85.391 137.647C85.7576 138.014 86.0349 138.451 86.4031 138.812C86.9384 139.337 87.8449 140.022 88.6247 139.979C88.8753 139.965 89.1526 140.043 89.3984 140.006C89.6092 139.974 89.8652 139.963 90.0764 140C90.4235 140.059 90.8001 139.999 91.1321 140.071C91.3113 140.11 91.5063 140.053 91.6878 140.087C91.923 140.13 92.1987 140.141 92.4384 140.141C93.2231 140.141 94.0057 140.136 94.7884 140.037C95.2124 139.983 95.6325 140.124 96.0523 140.049C96.4463 139.979 96.9711 140.052 97.3417 139.889C97.7971 139.69 98.2502 139.377 98.602 139.025C98.7785 138.849 98.9124 138.638 99.0318 138.42C99.1887 138.133 99.2761 137.824 99.4338 137.538C99.9837 136.541 100.297 135.432 100.743 134.393C100.847 134.148 101.02 133.95 101.146 133.723C101.177 133.666 101.192 133.593 101.244 133.538C101.438 133.333 101.066 133.311 100.895 133.233" stroke="#00ADB5" stroke-opacity="0.5" stroke-width="0.378328" stroke-linecap="round" stroke-linejoin="round"/>
<path d="M83.3088 134.083C83.6982 133.574 84.0286 133.199 84.5945 132.911C85.0684 132.67 85.5599 132.383 85.988 132.069C86.646 131.585 87.5515 131.369 88.3525 131.224C89.2244 131.065 90.0826 130.88 90.97 130.88C91.2446 130.88 91.5163 130.962 91.7909 130.967C92.1196 130.972 92.4492 130.983 92.7764 131.01C93.2786 131.053 93.794 131.043 94.297 131.054C94.9987 131.069 95.6705 131.433 96.3721 131.489C96.7895 131.522 97.2762 131.584 97.6821 131.698C97.8341 131.741 98.0075 131.77 98.1494 131.839C98.3259 131.924 98.4497 132.069 98.6119 132.17C99.1354 132.496 99.7207 132.649 100.286 132.897C100.46 132.973 100.758 133.102 100.95 133.102C101.214 133.102 101.2 133.59 101.2 133.102" stroke="#00ADB5" stroke-opacity="0.5" stroke-width="0.378328" stroke-linecap="round" stroke-linejoin="round"/>
<path d="M101.157 133.408C100.833 133.841 100.603 134.006 100.145 134.259C99.7845 134.457 99.3857 134.598 98.9822 134.672C98.6057 134.741 98.1944 134.795 97.8127 134.825C97.495 134.851 97.171 134.814 96.8466 134.851C96.1129 134.934 95.3726 135.124 94.6649 135.33C93.6547 135.625 92.6791 135.656 91.6358 135.713C90.4968 135.775 89.3547 135.688 88.2386 135.456C87.8622 135.378 87.4643 135.448 87.0812 135.433C86.6592 135.417 86.2457 135.3 85.8487 135.163C85.6816 135.106 85.5276 135.017 85.3523 134.977C85.1471 134.93 84.9385 134.948 84.7349 134.899C84.451 134.831 84.1197 134.707 83.8801 134.541C83.7759 134.469 83.6193 134.409 83.5375 134.3C83.5136 134.268 83.483 134.197 83.483 134.16C83.483 134.069 83.4091 134.092 83.5266 134.17" stroke="#00ADB5" stroke-opacity="0.5" stroke-width="0.378328" stroke-linecap="round" stroke-linejoin="round"/>
<path d="M91.7863 137.831C92.0515 137.802 92.402 137.807 92.2923 137.466C92.2571 137.356 92.1684 137.344 92.0744 137.313C91.7941 137.22 91.2923 137.401 91.187 137.693C90.9979 138.218 91.3557 138.786 91.9182 138.604C92.0712 138.554 92.3428 138.446 92.44 138.307C92.5568 138.14 92.3815 138.19 92.2657 138.027" stroke="#00ADB5" stroke-opacity="0.5" stroke-width="0.378328" stroke-linecap="round" stroke-linejoin="round"/>
<path d="M90.9804 137.265C91.4032 137.095 91.6195 137.025 92.047 137.025C92.2194 137.025 92.3056 137.013 92.4575 137.112C92.7084 137.276 92.7948 137.588 92.7686 137.863C92.7465 138.095 92.6698 138.412 92.5882 138.633C92.5276 138.796 92.3774 138.825 92.2238 138.855C92.0834 138.883 91.7773 138.805 91.6669 138.866C91.5497 138.931 91.191 138.953 91.1003 138.832C91.0168 138.721 90.9274 138.673 90.8666 138.538C90.8086 138.409 90.7825 138.286 90.7359 138.158C90.6719 137.982 90.5568 137.501 90.7952 137.395C90.9349 137.333 90.9947 137.296 91.1548 137.296C91.2002 137.296 91.2391 137.33 91.2855 137.33C91.3525 137.33 91.1564 137.286 91.0894 137.286" stroke="#00ADB5" stroke-opacity="0.5" stroke-width="0.378328" stroke-linecap="round" stroke-linejoin="round"/>
<path d="M91.7431 135.521C92.0505 135.124 92.331 134.714 92.6487 134.328C92.8194 134.12 93.0314 133.941 93.2153 133.743C93.742 133.174 94.2787 132.552 94.6803 131.887C95.0759 131.232 95.6157 130.519 96.2021 130.027C96.5118 129.767 96.7886 129.48 97.0581 129.181C97.3195 128.89 97.4399 128.484 97.6876 128.177C97.8794 127.94 99.135 126.322 99.3535 127.306C99.4394 127.692 99.0624 127.962 98.8257 128.199C98.557 128.468 98.2871 128.809 98.0581 129.114C97.8373 129.409 97.5691 129.667 97.3547 129.964C97.063 130.368 96.5323 130.657 96.3195 131.114C96.144 131.492 95.8528 131.795 95.6343 132.145C95.3314 132.629 94.9765 133.034 94.6197 133.478C94.337 133.829 93.8939 134.118 93.6936 134.519C93.5262 134.854 93.2295 134.995 92.9587 135.211C92.8408 135.306 92.6975 135.358 92.593 135.489C92.5583 135.532 92.4961 135.582 92.4635 135.533C92.4449 135.506 92.374 135.568 92.3872 135.599C92.4337 135.707 92.3207 135.338 92.3097 135.303" stroke="#00ADB5" stroke-opacity="0.5" stroke-width="0.378328" stroke-linecap="round" stroke-linejoin="round"/>
<path d="M91.5686 135.63C91.6522 135.673 92.1788 136.072 92.1788 135.75C92.1788 135.653 92.3041 135.49 92.3483 135.391C92.3817 135.315 92.0808 135.387 92.036 135.445C91.9774 135.52 91.8639 135.581 92.0481 135.587C92.1895 135.591 92.3001 135.53 92.4076 135.446C92.4385 135.422 92.8543 135.488 92.4839 135.478C92.2869 135.472 92.0955 135.478 91.9064 135.478C91.7429 135.478 92.0742 135.434 92.1219 135.434C92.16 135.434 91.8457 135.621 91.7914 135.56C91.7782 135.545 91.7553 135.504 91.8084 135.478" stroke="#00ADB5" stroke-opacity="0.5" stroke-width="0.378328" stroke-linecap="round" stroke-linejoin="round"/>
<path d="M84.638 134.018C84.6626 134.031 85.4414 134.439 85.4444 134.388C85.4479 134.327 85.4045 134.274 85.4347 134.214C85.5664 133.95 85.737 134.077 85.9637 134.179C86.1407 134.258 85.8722 133.377 86.4057 133.749C86.6813 133.941 86.7548 133.911 86.7095 133.588C86.6752 133.344 86.7596 133.343 86.9698 133.369C87.1127 133.386 87.2151 133.418 87.2967 133.282C87.3957 133.117 87.5072 133.023 87.7096 133.094C87.8773 133.153 88.0263 133.319 88.1418 133.107C88.1926 133.014 88.1497 132.735 88.3101 132.789C88.4106 132.822 88.543 132.954 88.6575 132.912C88.7443 132.881 88.811 132.612 88.9094 132.655C89.0119 132.699 89.1165 132.894 89.2459 132.847C89.3084 132.825 89.4243 132.62 89.3016 132.645" stroke="#00ADB5" stroke-opacity="0.5" stroke-width="0.378328" stroke-linecap="round" stroke-linejoin="round"/>
<path d="M87.7106 133.625C87.9807 133.845 88.9924 135.019 89.2893 134.142C89.3425 133.985 89.351 133.674 89.5 133.932C89.6228 134.144 89.8077 134.291 90.0085 134.09C90.1415 133.957 90.2008 133.731 90.3911 133.662C90.5657 133.598 90.6939 133.926 90.839 133.734C90.9561 133.58 90.8994 133.314 90.7276 133.221C90.6713 133.19 90.6555 133.295 90.6308 133.32" stroke="#00ADB5" stroke-opacity="0.5" stroke-width="0.378328" stroke-linecap="round" stroke-linejoin="round"/>
<path d="M90.0424 132.274C90.4633 132.202 90.9934 132.055 91.3136 132.432C91.462 132.607 91.448 132.83 91.3499 133.028C91.2783 133.172 91.0855 133.244 90.9625 133.103C90.8616 132.986 91.0697 132.795 91.1441 132.724C91.3992 132.48 91.7773 132.87 91.8572 133.134C91.9239 133.355 91.3206 133.866 91.3935 133.647" stroke="#00ADB5" stroke-opacity="0.5" stroke-width="0.378328" stroke-linecap="round" stroke-linejoin="round"/>
<path d="M97.125 133.015C97.2501 132.972 98.0542 132.713 97.8998 133.141C97.8206 133.361 97.5176 133.478 97.3187 133.55C97.2246 133.584 96.9817 133.579 97.1395 133.441C97.2761 133.323 97.4686 133.267 97.648 133.282C98.3473 133.338 97.3694 134.142 97.1686 134.253C96.7784 134.468 96.2476 134.694 95.8392 134.432" stroke="#00ADB5" stroke-opacity="0.5" stroke-width="0.378328" stroke-linecap="round" stroke-linejoin="round"/>
<path d="M92.8321 131.729C92.998 131.999 93.1976 132.27 93.3393 132.554C93.3881 132.651 93.177 132.402 93.1275 132.304C93.1143 132.279 93.0235 131.993 93.0149 131.995C92.9087 132.018 92.8838 132.504 92.8551 132.594C92.7193 133.018 92.3838 132.856 92.0548 132.824C91.6565 132.785 91.4783 133.178 91.2582 133.429C91.082 133.63 91.0128 133.691 91.1323 133.93C91.2289 134.124 91.2691 134.311 91.1323 134.486C91.0255 134.623 90.8917 134.709 90.763 134.821C90.645 134.925 90.8142 134.908 90.7921 134.846C90.7316 134.676 90.3585 134.712 90.2363 134.72C89.7828 134.75 89.3208 134.636 88.8755 134.664C88.639 134.679 88.4163 134.811 88.1818 134.846C87.9437 134.881 88.2585 135.088 88.3477 135.147C88.5012 135.249 88.0471 134.929 87.8803 134.851C87.6006 134.718 87.3423 134.616 87.1975 134.323C87.0524 134.029 86.9246 133.829 86.6793 133.613C86.5948 133.539 86.5848 133.426 86.6261 133.325C86.7218 133.092 86.934 132.902 87.1443 132.775" stroke="#00ADB5" stroke-opacity="0.5" stroke-width="0.378328" stroke-linecap="round" stroke-linejoin="round"/>
<path d="M92.7882 132.601C92.2419 132.22 91.7912 132.056 91.1489 131.969C90.9231 131.939 90.6823 131.783 90.5351 131.61C90.4044 131.456 90.4785 131.497 90.3244 131.705C90.114 131.99 89.9577 131.734 89.6888 131.809C89.2767 131.924 88.923 132.307 88.5048 132.378C88.3902 132.398 88.4179 132.206 88.2747 132.289C88.0337 132.428 87.8494 132.559 87.5677 132.604C87.3973 132.63 87.0744 132.743 87.1004 132.95" stroke="#00ADB5" stroke-opacity="0.5" stroke-width="0.378328" stroke-linecap="round" stroke-linejoin="round"/>
<path d="M96.4927 132.601C97.0199 132.652 97.5539 132.646 98.0787 132.702C98.2635 132.722 98.358 132.796 98.488 132.917C98.6052 133.026 98.7882 133.283 98.9565 133.297C99.1991 133.318 99.3244 133.217 99.5509 133.146C99.6873 133.104 100.122 133.146 99.9795 133.146" stroke="#00ADB5" stroke-opacity="0.5" stroke-width="0.378328" stroke-linecap="round" stroke-linejoin="round"/>
<path d="M96.1007 133.19C95.5341 133.563 95.2314 134.129 94.6249 134.469C94.5048 134.537 94.1372 134.667 94.1649 134.888C94.1849 135.048 95.4126 134.547 95.5995 134.453" stroke="#00ADB5" stroke-opacity="0.5" stroke-width="0.378328" stroke-linecap="round" stroke-linejoin="round"/>
<path d="M98.2152 133.712C98.5233 133.942 98.789 134.27 99.1741 134.153C99.2783 134.122 99.4964 134.109 99.5664 134.039" stroke="#00ADB5" stroke-opacity="0.5" stroke-width="0.378328" stroke-linecap="round" stroke-linejoin="round"/>
<path d="M174.373 124.212C172.782 124.518 171.625 124.977 170.616 126.274C169.977 127.096 170.117 128.39 170.536 129.261C171.226 130.696 172.922 131.507 174.453 131.578C176.236 131.66 178.715 131.136 179.081 129.009C179.277 127.869 178.187 126.791 177.678 125.856C177.263 125.096 176.638 124.07 175.765 123.748C175.408 123.617 174.581 123.663 174.321 124.018C174.206 124.176 174.056 124.344 173.972 124.522C173.904 124.666 173.977 124.154 173.961 124.006" stroke="#00ADB5" stroke-opacity="0.5" stroke-width="0.378328" stroke-linecap="round" stroke-linejoin="round"/>
<path d="M175.043 128.13C174.613 128.35 173.916 128.497 174.293 128.98C174.378 129.09 174.501 129.084 174.605 128.98C174.694 128.891 175.143 128.424 174.811 128.313C174.134 128.087 174.382 129.437 174.865 128.84C175.125 128.519 174.761 128.203 174.436 128.399C174.048 128.632 174.355 129.038 174.659 128.685C174.888 128.419 174.705 128.215 174.456 128.465C174.232 128.688 174.459 129.045 174.679 128.742C174.905 128.432 174.647 128.17 174.376 128.442C174.061 128.757 174.402 128.723 174.625 128.516C174.85 128.307 174.451 128.338 174.321 128.502C174.02 128.882 174.492 128.828 174.567 128.502C174.679 128.023 174.184 129.124 174.424 128.284" stroke="#00ADB5" stroke-opacity="0.5" stroke-width="0.378328" stroke-linecap="round" stroke-linejoin="round"/>
<path d="M173.29 126.532C173.748 127.136 174.217 127.709 174.602 128.313C174.708 128.481 174.623 128.649 174.682 128.645C174.899 128.633 175.121 128.594 175.352 128.594C175.881 128.594 176.297 128.336 176.807 128.336C177.424 128.336 178.33 128.176 177.311 127.666" stroke="#00ADB5" stroke-opacity="0.5" stroke-width="0.378328" stroke-linecap="round" stroke-linejoin="round"/>
<path d="M172.775 124.161C172.678 123.674 172.208 122.492 173.084 122.617C173.398 122.662 173.609 122.988 173.794 123.193C174.275 123.728 174.224 124.373 173.445 124.419C173.241 124.431 172.953 124.835 172.723 124.548C172.462 124.222 172.729 124.244 172.775 123.852C172.805 123.595 172.637 123.617 172.566 123.365C172.51 123.172 172.625 122.96 172.672 122.821" stroke="#00ADB5" stroke-opacity="0.5" stroke-width="0.378328" stroke-linecap="round" stroke-linejoin="round"/>
<path d="M173.084 123.594C173.079 123.717 172.89 124.826 173.293 124.645C173.428 124.584 173.545 124.496 173.599 124.356C173.652 124.22 173.596 124.139 173.536 124.006C173.383 123.665 172.937 123.134 173.073 123.903C173.158 124.389 173.7 124.275 173.743 123.811C173.775 123.457 173.328 122.983 173.044 123.388C172.843 123.674 173.201 124.305 173.41 123.863C173.517 123.639 173.262 123.068 172.992 123.348C172.715 123.634 173.132 124.24 173.405 123.995C173.675 123.753 173.491 123.014 173.199 123.296C172.931 123.554 173.332 124.067 173.536 123.674C173.764 123.236 173.263 122.906 173.107 123.365C172.968 123.775 173.402 124.215 173.502 123.657C173.578 123.232 172.798 123.006 172.798 123.514C172.798 123.982 173.216 123.934 173.216 123.508C173.216 123.064 172.769 123.164 172.955 123.537C173.141 123.909 173.391 123.248 173.181 123.038C172.937 122.794 172.613 123.172 172.901 123.408C173.097 123.568 173.366 122.902 173.035 122.778C172.75 122.671 172.908 123.253 173.007 123.121C173.16 122.917 172.925 122.78 173.087 122.821C173.229 122.856 173.576 122.933 173.674 123.058C173.751 123.157 174.063 123.709 174.063 123.852C174.063 124.289 173.394 124.525 173.01 124.416C172.734 124.337 172.652 124.532 172.749 124.467C172.983 124.311 173.032 123.903 173.032 124.058" stroke="#00ADB5" stroke-opacity="0.5" stroke-width="0.378328" stroke-linecap="round" stroke-linejoin="round"/>
<path d="M173.033 131.532C172.767 132.095 172.532 132.66 172.219 133.192C172.149 133.312 172.017 133.557 172.002 133.696C171.96 134.072 172.338 132.8 172.414 132.614" stroke="#00ADB5" stroke-opacity="0.5" stroke-width="0.378328" stroke-linecap="round" stroke-linejoin="round"/>
<path d="M178.239 130.449C178.892 131.273 179.612 131.861 180.12 132.766C180.17 132.855 180.257 132.926 180.327 132.995C180.558 133.226 179.897 132.501 179.682 132.253" stroke="#00ADB5" stroke-opacity="0.5" stroke-width="0.378328" stroke-linecap="round" stroke-linejoin="round"/>
<path d="M135.002 82.3902C135.41 83.9307 136.986 89.6576 137.363 91.7499C138.401 97.5112 136.772 89.6499 136.768 92.1944" stroke="#00ADB5" stroke-opacity="0.5" stroke-width="0.756655" stroke-linecap="round" stroke-linejoin="round"/>
<path d="M132.235 84.8807C132.096 82.5365 131.57 79.2828 134.857 79.6178C136.403 79.7754 138.107 80.6933 139.071 81.9213C140.561 83.8191 139.775 86.7607 138.165 88.271C137.308 89.0748 136.477 89.4775 135.356 89.7814C133.456 90.2962 134.956 87.6581 135.261 86.9348" stroke="#00ADB5" stroke-opacity="0.5" stroke-width="0.756655" stroke-linecap="round" stroke-linejoin="round"/>
<path d="M140.785 87.7454C144.051 87.5708 147.057 86.9278 148.226 90.4698C148.905 92.5283 149.732 95.0293 149.166 97.1987C148.654 99.1588 147.553 100.384 145.538 99.5492C142.66 98.3561 142.664 96.1095 144.231 93.8693C144.807 93.0445 147.017 91.3927 147.018 90.4283" stroke="#00ADB5" stroke-opacity="0.5" stroke-width="0.756655" stroke-linecap="round" stroke-linejoin="round"/>
<path d="M146.672 83.923C146.56 84.7823 146.559 90.8615 144.913 90.9199C144.605 90.9308 144.346 91.0913 144.076 91.2254C143.04 91.7413 143.67 91.2772 144.057 90.7403C144.933 89.5244 146.707 89.9736 147.595 88.3599C148.56 86.6075 149.004 85.7455 147.621 84.3898C146.652 83.4397 147.078 81.8236 146.315 84.1007" stroke="#00ADB5" stroke-opacity="0.5" stroke-width="0.756655" stroke-linecap="round" stroke-linejoin="round"/>
<path d="M151.492 78.4062C152.754 81.2481 153.908 84.9489 155.933 87.4226C156.468 88.0764 156.768 87.5074 156.76 86.9982C156.75 86.3549 156.568 85.7059 156.382 85.0967" stroke="#00ADB5" stroke-opacity="0.5" stroke-width="0.756655" stroke-linecap="round" stroke-linejoin="round"/>
<path d="M147.827 85.7962C149.83 85.0082 154.748 84.2107 155.586 81.7097" stroke="#00ADB5" stroke-opacity="0.5" stroke-width="0.756655" stroke-linecap="round" stroke-linejoin="round"/>
<path d="M153.987 78.4992C162.668 93.6832 154.21 83.0112 158.623 80.2342C161.301 78.5486 161.525 86.4932 162.267 83.0566" stroke="#00ADB5" stroke-opacity="0.5" stroke-width="0.756655" stroke-linecap="round" stroke-linejoin="round"/>
<path d="M161.74 77.977C162.055 78.9188 163.112 85.1351 165.315 83.715C166.299 83.0801 167.446 81.8694 167.636 80.6793C167.84 79.4022 167.042 76.1581 165.237 76.5074C164.413 76.6668 163.035 76.7053 162.498 77.4882C161.978 78.2449 161.65 80.0171 162.274 78.1561" stroke="#00ADB5" stroke-opacity="0.5" stroke-width="0.756655" stroke-linecap="round" stroke-linejoin="round"/>
<path d="M167.89 76.472C170.352 74.8915 173.245 74.3726 173.62 78.0948C173.667 78.5619 173.676 79.1503 173.89 79.5803C174.138 80.079 173.628 78.3613 173.145 78.0842" stroke="#00ADB5" stroke-opacity="0.5" stroke-width="0.756655" stroke-linecap="round" stroke-linejoin="round"/>
<path d="M167.71 77.8974C167.821 79.8432 167.543 82.4789 168.452 84.3042C168.483 84.3665 168.699 84.8427 168.59 84.5816C168.375 84.0654 168.286 83.7147 167.88 83.1548" stroke="#00ADB5" stroke-opacity="0.5" stroke-width="0.756655" stroke-linecap="round" stroke-linejoin="round"/>
<path d="M105.404 95.5113C105.063 98.6738 105.658 108.41 100.286 107.805C99.1666 107.678 98.1494 107.491 97.6175 106.436C97.0605 105.331 96.5997 104.37 96.5442 103.115C96.4761 101.574 97.0897 100.846 98.336 100.151C98.7732 99.9067 97.8339 100.894 97.7507 100.99C97.203 101.619 99.0614 100.852 99.7718 100.695" stroke="#00ADB5" stroke-opacity="0.5" stroke-width="0.756655" stroke-linecap="round" stroke-linejoin="round"/>
<path d="M112.3 97.0308C109.583 97.2849 105.748 97.8002 105.31 101.199C105.072 103.042 107.813 103.266 109.003 103.894C111.047 104.973 112.598 108.491 110.305 110.04C108.711 111.117 107.505 110.544 105.954 110.652C104.378 110.761 105.475 110.18 106.409 110.021" stroke="#00ADB5" stroke-opacity="0.5" stroke-width="0.756655" stroke-linecap="round" stroke-linejoin="round"/>
<path d="M127.021 13.3534C126.804 15.5353 126.671 17.7395 126.402 19.9162C126.376 20.1256 126.17 20.9524 126.414 20.284C126.592 19.7953 126.534 19.2859 126.821 18.8225C127.215 18.1842 128.997 15.7526 129.834 15.9986C131.511 16.4915 129.818 19.6025 129.338 20.4939C129.172 20.8014 128.721 21.4683 128.955 21.8131C129.266 22.2727 129.842 20.5741 129.867 20.5221" stroke="#00ADB5" stroke-opacity="0.5" stroke-width="0.756655" stroke-linecap="round" stroke-linejoin="round"/>
<path d="M133.645 14.7862C133.447 15.761 131.777 20.5726 133.386 21.3696C133.84 21.5945 134.844 21.1699 135.156 20.8039C135.481 20.4228 135.311 19.8392 135.276 19.3969" stroke="#00ADB5" stroke-opacity="0.5" stroke-width="0.756655" stroke-linecap="round" stroke-linejoin="round"/>
<path d="M130.335 14.8913C132.1 15.4162 133.915 15.7657 135.669 16.3072C136.083 16.4351 136.238 16.493 136.461 16.8623C136.808 17.4367 135.887 16.912 135.728 16.738" stroke="#00ADB5" stroke-opacity="0.5" stroke-width="0.756655" stroke-linecap="round" stroke-linejoin="round"/>
<path d="M138.318 18.3018C137.913 19.5248 137.532 20.7632 137.069 21.9668C136.977 22.2061 136.964 22.2936 136.914 22.1108C136.866 21.9348 136.82 21.831 136.898 21.6451C137.314 20.6569 138.283 19.2367 139.198 18.6847C140.186 18.0887 139.647 20.0908 139.514 20.4961C139.365 20.9512 138.964 22.1988 139.42 20.9916C139.692 20.2732 140.315 18.4878 141.366 18.7476C142.002 18.905 141.855 19.7655 141.743 20.2205C141.535 21.0596 141.329 21.8931 141.121 22.735C140.817 23.9652 140.981 23.3008 141.204 22.4018" stroke="#00ADB5" stroke-opacity="0.5" stroke-width="0.756655" stroke-linecap="round" stroke-linejoin="round"/>
<path d="M146.164 15.6237C145.53 17.9043 144.752 20.1783 144.206 22.4826C144.141 22.7528 144.002 23.7535 144.432 23.8726C144.841 23.9859 146.456 23.0156 146.061 22.6792" stroke="#00ADB5" stroke-opacity="0.5" stroke-width="0.756655" stroke-linecap="round" stroke-linejoin="round"/>
<path d="M36.3948 108.649C34.8954 111.497 33.4008 114.348 31.8973 117.195C31.4688 118.006 30.623 120.488 30.5183 119.577C30.3763 118.341 31.1314 116.61 31.4519 115.452C31.9041 113.818 32.8249 110.552 35.1194 110.564C36.8514 110.573 38.7986 113.113 39.0672 114.698C39.2568 115.817 39.8083 114.553 40.5568 114.216" stroke="#00ADB5" stroke-opacity="0.5" stroke-width="0.756655" stroke-linecap="round" stroke-linejoin="round"/>
<path d="M41.043 117.775C42.0506 120.118 43.5359 124.08 46.5946 121.9C48 120.899 47.3016 119.185 45.9142 118.641C42.514 117.307 38.2297 121.032 37.3817 124.094C36.5339 127.155 39.8806 128.093 42.1828 128.396C43.4567 128.563 43.171 127.474 44.2671 127.095" stroke="#00ADB5" stroke-opacity="0.5" stroke-width="0.756655" stroke-linecap="round" stroke-linejoin="round"/>
<path d="M49.511 125.877C46.8697 124.774 43.3704 123.791 41.8819 127.166C41.1645 128.793 44.3754 128.984 45.3277 128.939C47.1467 128.854 51.1971 124.643 49.8324 125.849C48.6349 126.907 47.423 128.156 46.9306 129.718C46.6126 130.727 46.9778 132.957 48.1478 131.417" stroke="#00ADB5" stroke-opacity="0.5" stroke-width="0.756655" stroke-linecap="round" stroke-linejoin="round"/>
<path d="M59.7824 127.989C55.9488 128.357 51.4053 128.549 50.0453 132.856C49.3766 134.974 50.9453 136.446 52.8354 137.067C54.1563 137.502 55.5027 136.559 56.3041 135.603" stroke="#00ADB5" stroke-opacity="0.5" stroke-width="0.756655" stroke-linecap="round" stroke-linejoin="round"/>
<path d="M63.2645 128.573C63.0543 128.829 53.6109 139.121 58.1123 139.201C59.3586 139.223 60.6378 138.498 61.4962 137.682" stroke="#00ADB5" stroke-opacity="0.5" stroke-width="0.756655" stroke-linecap="round" stroke-linejoin="round"/>
<path d="M55.2649 130.446C57.0781 131.696 58.8657 133.02 60.8545 133.987C61.371 134.238 62.2318 134.357 62.5874 134.878C62.7871 135.17 62.473 134.476 62.4381 134.375" stroke="#00ADB5" stroke-opacity="0.5" stroke-width="0.756655" stroke-linecap="round" stroke-linejoin="round"/>
<path d="M35.041 48.0391C36.5626 50.6413 41.3946 58.2329 39.433 55.9441C38.1791 54.4812 37.2267 52.5396 36.4316 50.809C35.5974 48.9929 34.814 45.7523 37.9932 45.9168C40.7218 46.058 41.811 48.8444 42.291 51.1284C42.5028 52.136 42.5568 52.9187 43.0088 53.8352C43.4709 54.7723 43.4965 51.1619 43.6722 50.2251" stroke="#00ADB5" stroke-opacity="0.5" stroke-width="0.756655" stroke-linecap="round" stroke-linejoin="round"/>
<path d="M44.872 42.7469C44.9569 43.1406 46.2722 52.1391 48.1812 50.4084C48.985 49.6797 49.1616 47.8836 49.2648 46.8996C49.5874 43.8241 48.2882 43.4443 46.1291 42.7934C45.0991 42.4829 44.888 42.497 44.6052 43.5573C44.0244 45.7347 44.9399 45.1229 46.1131 43.9121" stroke="#00ADB5" stroke-opacity="0.5" stroke-width="0.756655" stroke-linecap="round" stroke-linejoin="round"/>
<path d="M53.1727 40.2086C52.112 41.9961 50.7595 44.0988 51.5057 46.2883C51.8152 47.1965 52.5351 46.9565 53.0394 46.4453C53.8351 45.6384 54.25 44.3123 54.2057 43.2043C54.1209 41.0802 52.7903 39.2626 51.3942 37.7534C51.2007 37.5441 49.4375 36.0906 49.7827 37.3386C50.4029 39.5802 52.129 41.7364 53.3318 43.6846C55.3142 46.8956 55.9222 45.6487 56.8127 42.6345" stroke="#00ADB5" stroke-opacity="0.5" stroke-width="0.756655" stroke-linecap="round" stroke-linejoin="round"/>
<path d="M57.0011 40.7641C57.6593 41.3779 62.8537 45.0883 63.0149 41.7972C63.0295 41.4986 62.6489 41.4054 62.5234 41.151C62.2001 40.4953 61.6645 40.0628 61.373 39.7189" stroke="#00ADB5" stroke-opacity="0.5" stroke-width="0.756655" stroke-linecap="round" stroke-linejoin="round"/>
<path d="M57.4339 42.9941C55.3771 40.2933 52.5041 37.4853 55.4493 34.8152C56.6903 33.6902 59.2648 34.5798 59.1975 36.4595C59.1661 37.3351 58.9814 39.4999 57.7241 39.7285C57.0593 39.8494 56.7529 39.414 57.3678 38.8058" stroke="#00ADB5" stroke-opacity="0.5" stroke-width="0.756655" stroke-linecap="round" stroke-linejoin="round"/>
<path d="M62.1301 31.7927C63.4597 32.6388 72.9352 38.2383 67.972 40.6859C67.1985 41.0673 66.5179 40.1783 66.1067 39.6063C65.1798 38.3169 67.8801 36.4877 67.9927 35.1219" stroke="#00ADB5" stroke-opacity="0.5" stroke-width="0.756655" stroke-linecap="round" stroke-linejoin="round"/>
<path d="M69.9066 27.2912C69.1328 27.9233 64.6934 31.8492 68.1843 32.6082C70.1126 33.0275 71.9352 31.106 73.4007 30.147C75.7615 28.6019 76.2599 31.575 75.6112 33.2531C75.2139 34.2807 71.8972 37.6439 72.8048 34.9702" stroke="#00ADB5" stroke-opacity="0.5" stroke-width="0.756655" stroke-linecap="round" stroke-linejoin="round"/>
<path d="M96.1077 173.415C93.1542 174.901 89.2843 177.611 92.4771 181.207C94.0087 182.932 96.836 182.225 98.8529 182.026C99.4195 181.97 100.983 182.515 100.557 182.137C99.6368 181.319 98.9742 181.371 98.6979 179.99" stroke="#00ADB5" stroke-opacity="0.5" stroke-width="0.756655" stroke-linecap="round" stroke-linejoin="round"/>
<path d="M104.875 172.419C104.875 174.596 104.854 176.154 107.088 177.001C108.053 177.367 108.659 177.702 108.915 178.783C109.204 180.005 108.352 181.775 107.343 182.458C106.096 183.303 104.529 183.598 103.126 183.023C101.924 182.53 103.252 181.948 103.878 181.384" stroke="#00ADB5" stroke-opacity="0.5" stroke-width="0.756655" stroke-linecap="round" stroke-linejoin="round"/>
<path d="M114.637 170.028C114.246 171.546 112.479 175.607 114.051 177.178C114.685 177.813 115.914 177.46 116.696 177.643C117.475 177.825 118.143 178.421 118.622 179.038C119.382 180.014 118.659 181.495 117.781 182.181C116.419 183.247 114.474 182.779 112.889 182.779C112.023 182.779 112.614 182.718 113.044 182.181" stroke="#00ADB5" stroke-opacity="0.5" stroke-width="0.756655" stroke-linecap="round" stroke-linejoin="round"/>
<path d="M111.202 151.132C112.737 150.546 115.585 149.614 117.069 148.564C118.636 147.456 116.995 147.137 116.161 147.402C114.749 147.851 113.895 149.331 113.416 150.634C112.155 154.066 116.166 157.946 119.537 157.552C122.653 157.189 123.088 155.663 123.555 153.324" stroke="#00ADB5" stroke-opacity="0.5" stroke-width="0.756655" stroke-linecap="round" stroke-linejoin="round"/>
<path d="M125.548 149.339C125.199 149.908 121.883 156.735 120.965 153.524" stroke="#00ADB5" stroke-opacity="0.5" stroke-width="0.756655" stroke-linecap="round" stroke-linejoin="round"/>
<path d="M119.372 149.539C120.771 151.409 124.151 158.095 127.541 157.907C128.033 157.879 127.381 155.987 127.342 155.715" stroke="#00ADB5" stroke-opacity="0.5" stroke-width="0.756655" stroke-linecap="round" stroke-linejoin="round"/>
<path d="M128.537 149.539C129.309 154.066 130.858 167.75 129.976 163.242C129.521 160.918 125.368 148.341 129.024 148.863C130.609 149.09 134.656 151.403 133.595 153.523C132.999 154.716 129.304 155.132 130.928 154.32" stroke="#00ADB5" stroke-opacity="0.5" stroke-width="0.756655" stroke-linecap="round" stroke-linejoin="round"/>
<path d="M136.108 152.726C136.6 155.288 137.074 157.848 137.503 160.419C137.576 160.86 137.478 160.497 137.348 160.253C136.533 158.725 135.417 156.002 135.455 154.287C135.491 152.663 137.726 151.555 138.898 152.726" stroke="#00ADB5" stroke-opacity="0.5" stroke-width="0.756655" stroke-linecap="round" stroke-linejoin="round"/>
<path d="M142.484 155.715C142.433 157.59 143.793 164.154 147.023 162.246C147.486 161.972 148.627 161.304 148.661 160.696C148.679 160.372 148.089 160.297 147.864 160.297C147.272 160.297 147.124 159.563 146.868 159.102" stroke="#00ADB5" stroke-opacity="0.5" stroke-width="0.756655" stroke-linecap="round" stroke-linejoin="round"/>
<path d="M141.488 156.313C143.233 154.507 145.196 152.02 146.746 155.239C147.2 156.181 147.042 157.317 146.668 158.261C146.065 159.786 143.906 160.387 144.477 158.106" stroke="#00ADB5" stroke-opacity="0.5" stroke-width="0.756655" stroke-linecap="round" stroke-linejoin="round"/>
<path d="M152.247 152.726C153.613 154.908 159.135 160.791 155.512 163.474C154.353 164.333 153.597 164.329 152.291 164.282C150.449 164.216 151.422 163.749 152.048 162.29" stroke="#00ADB5" stroke-opacity="0.5" stroke-width="0.756655" stroke-linecap="round" stroke-linejoin="round"/>
<path d="M160.615 151.929C160.202 152.428 154.875 157.579 158.113 158.128C159.307 158.33 160.404 157.607 161.5 158.338C163.478 159.657 163.01 161.445 161.19 162.567C160.281 163.127 159.266 163.421 158.312 163.884C157.773 164.145 158.348 163.388 158.423 163.087" stroke="#00ADB5" stroke-opacity="0.5" stroke-width="0.756655" stroke-linecap="round" stroke-linejoin="round"/>
<path d="M156.032 149.738C155.57 150.078 150.588 152.842 151.295 154.52C152.186 156.636 152.48 154.031 152.645 153.125" stroke="#00ADB5" stroke-opacity="0.5" stroke-width="0.756655" stroke-linecap="round" stroke-linejoin="round"/>
<path d="M33.5735 84.5621C34.4609 82.4697 34.0975 80.6465 34.0975 78.478C34.0975 78.0562 34.0209 76.7713 34.4642 76.5413C35.1633 76.1786 35.8166 75.9366 36.6415 75.9366C37.1899 75.9366 37.7408 75.9524 38.289 75.9366C38.8372 75.9208 39.3682 75.6978 39.9103 75.6314C40.9188 75.5078 41.9677 75.6799 42.9637 75.6799C43.7544 75.6799 44.5724 75.7826 45.333 75.7826C45.4681 75.7826 46.0186 75.8469 46.1073 75.9252C46.3788 76.1646 46.301 76.5486 46.5148 76.7581" stroke="#00ADB5" stroke-opacity="0.5" stroke-width="0.378328" stroke-linecap="round" stroke-linejoin="round"/>
<path d="M46.4633 76.9435C46.4978 77.561 46.5107 78.4274 46.7648 79.0308C46.9294 79.4218 46.7981 79.9421 46.8314 80.3585C46.8954 81.1579 46.7764 81.937 46.7764 82.7126C46.7764 83.7529 46.8285 84.7799 46.8285 85.8145C46.8285 86.7026 45.9609 86.5539 45.2747 86.4291C44.6819 86.3213 43.8864 86.5374 43.2685 86.5451C42.0766 86.5598 40.8791 86.6494 39.6853 86.6494C38.6883 86.6494 37.948 86.3599 37.0298 86.0117C36.5396 85.8257 36.2432 85.8667 35.7166 85.8667C35.2178 85.8667 34.8076 85.7887 34.3077 85.945C34.0151 86.0364 33.4913 85.9575 33.3249 85.658C33.1254 85.2988 33.522 85.1431 33.522 84.8491C33.522 84.6023 33.491 83.8965 33.5742 84.5621" stroke="#00ADB5" stroke-opacity="0.5" stroke-width="0.378328" stroke-linecap="round" stroke-linejoin="round"/>
<path d="M39.523 78.3002C39.523 78.3002 39.7317 78.4046 39.9404 78.6133C40.1492 78.7699 40.5885 78.6916 40.958 78.6916C41.1524 78.6916 41.3577 78.5401 41.532 78.4626C41.8851 78.3057 41.6745 78.6008 41.59 78.7699C41.4964 78.957 41.6033 79.3049 41.7726 79.4222C42.052 79.6156 42.3285 79.4487 42.6017 79.312C42.7152 79.2553 42.684 79.229 42.7192 79.3062C42.7668 79.411 42.7583 79.563 42.7583 79.6773C42.7583 79.9374 42.7412 80.3696 42.6017 80.5963C42.4183 80.8944 42.2329 81.0874 41.9379 81.3065C41.6464 81.5231 41.2613 81.9008 40.8739 81.9008C40.1169 81.9008 39.3133 81.7359 38.9345 80.9992C38.7739 80.687 38.4793 80.4314 38.4793 80.0744C38.4793 79.7767 38.3808 79.4198 38.4793 79.1352C38.5988 78.7901 38.8968 78.4626 38.7924 78.4626C38.8456 78.4778 39.3142 78.1959 39.523 78.3002Z" stroke="#00ADB5" stroke-opacity="0.5" stroke-width="0.378328" stroke-linecap="round" stroke-linejoin="round"/>
<path d="M40.3837 78.1175C40.6773 78.0089 41.3478 77.7812 41.5057 77.4261C41.6276 77.1517 41.2245 77.1 41.0099 77.1C40.7497 77.1 40.4414 77.4596 40.3722 77.687C40.3337 77.8135 40.2971 77.943 40.2591 78.0712C40.2408 78.133 40.2652 78.1778 40.2779 78.235C40.2876 78.2785 40.6857 78.0695 40.6707 78.0096" stroke="#00ADB5" stroke-opacity="0.5" stroke-width="0.378328" stroke-linecap="round" stroke-linejoin="round"/>
<path d="M45.6566 83.9868L34.1032 84.2406C32.881 84.2674 31.9042 85.2659 31.9042 86.4884C31.9042 87.7301 32.9108 88.7367 34.1525 88.7367H45.7064C46.9601 88.7367 47.9764 87.7204 47.9764 86.4667V86.2563C47.9764 84.9831 46.9295 83.9589 45.6566 83.9868Z" stroke="#00ADB5" stroke-opacity="0.5" stroke-width="0.378328"/>
<path d="M36.6335 84.1777C36.8068 84.4464 36.9564 84.7689 37.1553 85.0175C37.2553 85.1425 37.2393 85.1171 37.4332 85.0453C37.7569 84.9254 38.1236 85.0113 38.4613 85.0113C38.7578 85.0113 39.1025 84.8565 39.3906 84.9341C39.7245 85.024 40.118 84.8524 40.4466 84.8446C40.8425 84.8352 41.2199 84.8724 41.6136 84.8724C41.851 84.8724 42.0824 84.7334 42.3021 84.7334C42.4296 84.7334 42.793 84.8345 42.8023 84.6007C42.8069 84.4868 42.8579 84.3762 42.8579 84.261C42.8579 84.1054 42.7647 84.1728 42.6078 84.0943" stroke="#00ADB5" stroke-opacity="0.5" stroke-width="0.378328" stroke-linecap="round" stroke-linejoin="round"/>
<path d="M93.1637 27.1371C93.378 26.8647 93.7885 26.3606 93.2132 26.2715C93.0831 26.2514 92.9615 26.1749 92.8339 26.2328C92.4406 26.411 92.0752 26.8034 92.0752 27.27C92.0752 28.0153 92.8925 28.1767 93.4863 28.167C94.488 28.1507 94.7928 27.1747 95.1466 26.3841C95.504 25.5855 95.901 24.7998 96.2718 24.0069C96.6914 23.1097 97.3796 22.395 97.8149 21.506C98.0016 21.1248 98.2453 20.7891 98.4856 20.441C98.8585 19.9011 99.1243 19.3564 99.3909 18.7578C99.6097 18.2666 99.8523 17.8181 100.12 17.3532C100.229 17.1652 100.188 16.8772 100.395 17.0782C100.553 17.2308 100.803 17.3311 101.015 17.3698C101.94 17.5394 102.792 17.7188 103.745 17.643C104.709 17.5663 105.673 17.4282 106.622 17.2443C106.945 17.1818 106.808 17.2571 106.655 17.4529C106.397 17.785 106.177 18.137 105.93 18.4735C105.607 18.9124 105.494 19.441 105.303 19.9427C105.093 20.4942 104.844 21.0211 104.643 21.5817C104.256 22.6651 103.691 23.6531 102.992 24.5624C102.587 25.0894 102.087 26.0098 101.328 25.9725C100.154 25.9148 100.947 23.6042 101.508 23.1523C101.81 22.9091 102.14 23.1709 102.177 23.4975C102.227 23.9461 102.073 24.5609 101.638 24.7802C101.178 25.0116 100.826 24.9838 101.18 24.3871C101.394 24.026 101.521 24.4234 101.608 24.2468" stroke="#00ADB5" stroke-opacity="0.5" stroke-width="0.756655" stroke-linecap="round" stroke-linejoin="round"/>
<path d="M181.628 107.631C181.842 107.358 182.253 106.854 181.678 106.765C181.547 106.745 181.426 106.669 181.298 106.726C180.905 106.905 180.539 107.297 180.539 107.764C180.539 108.509 181.357 108.67 181.951 108.661C182.952 108.644 183.257 107.668 183.611 106.878C183.968 106.079 184.365 105.293 184.736 104.501C185.156 103.603 185.844 102.889 186.279 102C186.466 101.618 186.71 101.283 186.95 100.935C187.323 100.395 187.589 99.8501 187.855 99.2514C188.074 98.7603 188.317 98.3117 188.585 97.8469C188.693 97.6589 188.652 97.3709 188.86 97.5719C189.017 97.7245 189.267 97.8247 189.479 97.8635C190.405 98.033 191.256 98.2124 192.21 98.1366C193.174 98.06 194.138 97.9218 195.087 97.738C195.409 97.6755 195.272 97.7507 195.12 97.9465C194.862 98.2787 194.641 98.6307 194.394 98.9672C194.072 99.4061 193.958 99.9346 193.767 100.436C193.558 100.988 193.308 101.515 193.108 102.075C192.72 103.159 192.155 104.147 191.456 105.056C191.051 105.583 190.551 106.503 189.792 106.466C188.619 106.408 189.411 104.098 189.972 103.646C190.274 103.403 190.604 103.665 190.641 103.991C190.691 104.44 190.538 105.055 190.102 105.274C189.643 105.505 189.29 105.477 189.644 104.881C189.858 104.52 189.985 104.917 190.073 104.74" stroke="#00ADB5" stroke-opacity="0.5" stroke-width="0.756655" stroke-linecap="round" stroke-linejoin="round"/>
<path d="M172.169 60.6784C171.187 58.8984 171.244 58.3899 171.468 56.5982C171.592 55.6116 171.639 54.6476 171.889 53.6769C172.335 51.9411 172.48 49.6036 171.082 48.206C168.332 45.456 163.211 49.367 164.761 52.856C165.352 54.1839 166.371 55.167 167.108 56.4196C167.404 56.9219 167.569 57.4664 167.953 57.9358C168.321 58.3859 168.779 58.9461 168.779 59.5051C168.779 59.9772 168.638 60.5894 168.972 61.0068C169.433 61.5834 169.269 61.2868 169.952 61.2868C170.422 61.2868 171.114 60.9137 171.493 60.6108C171.763 60.3946 171.908 61.02 171.908 60.4177C171.908 59.9006 171.741 60.3308 172.082 60.3308" stroke="#00ADB5" stroke-opacity="0.5" stroke-width="0.378328" stroke-linecap="round" stroke-linejoin="round"/>
<path d="M169.996 62.3299C170.925 62.0527 173.498 61.4339 172.903 62.1995C172.184 63.1232 171.877 62.6603 170.995 62.8562C170.544 62.9564 170.105 64.3478 170.604 64.3772C171.317 64.4191 171.79 63.4598 172.516 63.4598C173.177 63.4598 173.13 64.3297 172.734 64.6379C172.21 65.045 171.608 64.6075 171.256 65.2415C170.699 66.2435 172.22 66.0805 172.652 65.8451C173.086 65.6079 173.5 65.2376 173.82 65.0242" stroke="#00ADB5" stroke-opacity="0.5" stroke-width="0.378328" stroke-linecap="round" stroke-linejoin="round"/>
<path d="M172.169 60.3963C172.157 60.472 172.145 60.983 171.941 60.983C171.831 60.983 171.78 60.9163 171.68 60.9721C171.562 61.0377 171.451 61.192 171.338 61.2823C171.239 61.3619 170.944 61.3521 170.887 61.4513C170.794 61.6135 170.606 61.7022 170.431 61.7217C170.203 61.747 170.119 61.8613 169.876 61.8074C169.802 61.791 169.795 61.7435 169.726 61.7435C169.618 61.7435 169.572 61.7947 169.491 61.7048C169.402 61.6054 169.256 61.5588 169.213 61.4079C169.154 61.2026 168.939 61.0947 169.257 61.222" stroke="#00ADB5" stroke-opacity="0.5" stroke-width="0.378328" stroke-linecap="round" stroke-linejoin="round"/>
<path d="M167.975 51.7914C168.364 51.7935 168.685 51.8185 168.817 52.2308C168.908 52.5113 168.909 52.7869 168.909 53.0782C168.909 53.3614 168.735 53.589 168.735 53.8556C168.735 54.208 169.017 54.1503 169.256 54.2576C169.481 54.359 169.644 54.4437 169.766 54.6704C169.887 54.895 169.796 55.3293 169.779 55.5734C169.765 55.7835 169.666 56.2299 169.811 56.4075C169.89 56.504 170.321 56.653 170.039 56.4413" stroke="#00ADB5" stroke-opacity="0.5" stroke-width="0.378328" stroke-linecap="round" stroke-linejoin="round"/>
<path d="M164.694 55.7241C164.382 55.9309 164.065 56.1042 163.717 56.2348C163.571 56.2895 163.379 56.3871 163.412 56.1587" stroke="#00ADB5" stroke-opacity="0.5" stroke-width="0.378328" stroke-linecap="round" stroke-linejoin="round"/>
<path d="M163.564 52.7258C163.012 52.8586 162.464 53.0083 161.917 53.1556C161.826 53.1801 162.035 52.9501 162.043 52.9431" stroke="#00ADB5" stroke-opacity="0.5" stroke-width="0.378328" stroke-linecap="round" stroke-linejoin="round"/>
<path d="M163.412 49.8793C162.841 49.7963 162.271 49.6932 161.703 49.592C161.441 49.5454 161.33 49.5797 161.478 49.3578" stroke="#00ADB5" stroke-opacity="0.5" stroke-width="0.378328" stroke-linecap="round" stroke-linejoin="round"/>
<path d="M166.497 46.8589C166.046 46.7796 165.654 46.7031 165.246 46.4992C165.055 46.4037 164.872 46.2889 164.672 46.2118C164.434 46.1203 164.429 46.1481 164.693 45.9897" stroke="#00ADB5" stroke-opacity="0.5" stroke-width="0.378328" stroke-linecap="round" stroke-linejoin="round"/>
<path d="M170.431 44.9034C170.497 45.3646 170.475 45.6408 170.288 46.0587C170.188 46.2839 170.103 46.5687 170.053 46.8119C170.036 46.8957 170.026 46.9434 169.97 47.0063C169.949 47.0298 170.026 46.75 170.04 46.7069" stroke="#00ADB5" stroke-opacity="0.5" stroke-width="0.378328" stroke-linecap="round" stroke-linejoin="round"/>
<path d="M173.755 46.7505C173.611 47.2308 173.405 47.6915 173.282 48.1725C173.219 48.4159 173.258 48.4307 173.364 48.1846" stroke="#00ADB5" stroke-opacity="0.5" stroke-width="0.378328" stroke-linecap="round" stroke-linejoin="round"/>
<path d="M175.145 50.2051C174.652 50.6324 174.247 51.1628 173.863 51.6875C173.815 51.7532 173.76 51.7766 173.706 51.8299C173.585 51.9511 173.794 51.6775 173.82 51.6392" stroke="#00ADB5" stroke-opacity="0.5" stroke-width="0.378328" stroke-linecap="round" stroke-linejoin="round"/>
<path d="M64.5073 93.7917C65.2297 97.046 66.0432 100.308 66.5211 103.611C66.788 105.457 66.2019 102.794 66.129 102.417C65.9713 101.602 65.7904 100.88 65.7904 100.047C65.7904 98.3697 65.7455 96.6738 65.6211 94.9946C65.534 93.8192 64.0902 90.3193 65.9152 93.2392C67.7759 96.2165 69.0897 99.5081 70.3527 102.756C70.5267 103.203 70.7678 103.628 70.9586 104.057C71.0628 104.291 69.1097 102.382 68.3567 101.972" stroke="#00ADB5" stroke-opacity="0.5" stroke-width="0.756655" stroke-linecap="round" stroke-linejoin="round"/>
<path d="M63.3844 101.009C65.4696 100.177 70.0675 98.6079 71.404 96.269C71.9639 95.2891 71.8549 95.7422 70.2813 96.0373" stroke="#00ADB5" stroke-opacity="0.5" stroke-width="0.756655" stroke-linecap="round" stroke-linejoin="round"/>
<path d="M69.6395 90.1028C71.2487 93.2884 72.4142 96.6804 72.8562 100.216C72.8972 100.544 72.9733 100.904 73.2037 101.134C73.2465 101.177 72.4319 99.6522 72.2057 99.2451" stroke="#00ADB5" stroke-opacity="0.5" stroke-width="0.756655" stroke-linecap="round" stroke-linejoin="round"/>
<path d="M69.6395 89.9424C70.8873 90.6899 75.4706 93.4506 72.482 95.2086C72.2197 95.3629 71.9122 95.5054 71.7246 95.7522C71.3274 96.2747 71.2795 96.4281 71.5642 95.7165" stroke="#00ADB5" stroke-opacity="0.5" stroke-width="0.756655" stroke-linecap="round" stroke-linejoin="round"/>
<path d="M73.8095 88.3385C74.341 91.9396 75.2531 95.8965 75.2531 99.5659C75.2531 100.376 75.1176 98.8757 74.9323 98.4432" stroke="#00ADB5" stroke-opacity="0.5" stroke-width="0.756655" stroke-linecap="round" stroke-linejoin="round"/>
<path d="M77.4993 94.7542C78.3798 97.3793 78.8327 98.926 76.2518 99.6907C75.3699 99.952 76.4355 98.6711 76.6617 98.5145C77.4338 97.98 78.2025 96.2594 77.3389 95.3958C76.9953 95.0522 76.1729 95.4862 75.931 95.075C75.5745 94.4689 76.3735 93.3214 76.8577 93.0255C78.2503 92.1745 78.0751 93.3738 77.4993 92.9899" stroke="#00ADB5" stroke-opacity="0.5" stroke-width="0.756655" stroke-linecap="round" stroke-linejoin="round"/>
<path d="M125.68 46.0455C126.211 48.8429 128.4 57.0115 127.127 54.4646C126.989 54.1902 126.875 53.9576 126.864 53.6461C126.821 52.4942 126.735 51.2899 126.337 50.1966C126.005 49.2821 126.074 48.334 126.074 47.361C126.074 47.166 125.743 45.6322 125.775 45.6216C126.109 45.51 127.491 47.1886 127.741 47.4779C129.004 48.9413 130.28 50.623 131.183 52.3379C131.647 53.2205 131.787 53.5367 130.678 53.6753" stroke="#00ADB5" stroke-opacity="0.5" stroke-width="0.756655" stroke-linecap="round" stroke-linejoin="round"/>
<path d="M125.548 51.702C126.783 51.0756 127.959 50.5751 129.232 50.1234" stroke="#00ADB5" stroke-opacity="0.5" stroke-width="0.756655" stroke-linecap="round" stroke-linejoin="round"/>
<path d="M129.1 46.177C130.364 48.0704 131.568 50.0853 133.039 51.8336C133.249 52.0829 133.689 52.5359 133.689 51.9505C133.689 51.1518 133.247 50.3263 133.046 49.568C132.725 48.3551 132.426 47.1366 132.155 45.9139C131.892 44.7336 132.077 45.1743 132.52 46.0601C133.254 47.528 134.027 48.865 135.049 50.1673C135.737 51.0447 135.809 50.5561 135.809 49.7873C135.809 48.3907 135.127 47.2423 134.625 45.987C134.088 44.6461 134.124 42.8157 133.514 41.5948C133.277 41.12 133.244 42.6247 133.178 43.1514" stroke="#00ADB5" stroke-opacity="0.5" stroke-width="0.756655" stroke-linecap="round" stroke-linejoin="round"/>
<path d="M136.204 41.4413C136.237 41.5958 136.727 45.4257 137.592 44.9931C137.971 44.8036 138.064 44.2236 138.455 44.0284C139.087 43.7122 139.771 44.2722 140.019 44.8177C140.674 46.26 139.92 47.9305 138.732 48.808C137.088 50.0236 137.651 47.8352 137.651 47.2294" stroke="#00ADB5" stroke-opacity="0.5" stroke-width="0.756655" stroke-linecap="round" stroke-linejoin="round"/>
<path d="M136.993 41.1779C136.757 41.8248 136.326 44.8283 136.197 43.6627C136.117 42.9432 136.259 42.3961 136.336 41.7041C136.518 40.0625 137.774 41.3831 137.257 40.5202" stroke="#00ADB5" stroke-opacity="0.5" stroke-width="0.756655" stroke-linecap="round" stroke-linejoin="round"/>
<path d="M128.22 127.584C128.176 127.503 126.278 124.235 126.443 124.141C126.67 124.011 127.095 124.137 127.363 124.037C128.155 123.74 128.793 123.127 129.445 122.62C130.13 122.087 131.07 126.27 131.278 127.151C131.531 128.217 132.188 129.634 130.958 130.25C129.849 130.804 128.39 130.637 127.179 130.61C125.204 130.566 123.839 127.324 123.608 125.71C123.441 124.535 121.814 120.764 123.56 120.01C124.028 119.808 124.822 119.946 125.33 119.946C126.056 119.946 126.689 119.513 127.427 119.513C128.602 119.513 128.957 120.98 127.932 119.369" stroke="#00ADB5" stroke-opacity="0.5" stroke-width="0.756655" stroke-linecap="round" stroke-linejoin="round"/>
<path d="M131.534 120.522C131.739 121.268 132.397 125.41 134.128 124.349C134.457 124.147 134.697 123.658 134.817 123.308C135.135 122.376 135.203 121.597 134.488 120.883C133.953 120.348 132.92 119.255 132.143 119.225C130.215 119.151 131.915 121.311 131.678 120.955" stroke="#00ADB5" stroke-opacity="0.5" stroke-width="0.756655" stroke-linecap="round" stroke-linejoin="round"/>
<path d="M131.822 113.893C133.246 116.144 135.393 118.619 136.258 121.211C136.368 121.541 136.372 121.766 136.578 122.076C136.889 122.542 137.036 123.219 137.33 122.508C137.757 121.477 138.728 120.563 139.492 119.77C140.434 118.791 140.563 119.081 138.883 119.081" stroke="#00ADB5" stroke-opacity="0.5" stroke-width="0.756655" stroke-linecap="round" stroke-linejoin="round"/>
<path d="M141.766 113.173C141.587 113.577 138.872 118.949 141.494 117.728C142.015 117.485 142.547 117.107 142.479 116.487C142.412 115.889 141.913 115.42 141.654 114.902C141.508 114.609 140.923 113.2 141.125 113.605C141.727 114.809 142.536 116.953 143.431 117.848C144.474 118.891 145.1 117.795 144.072 117.208" stroke="#00ADB5" stroke-opacity="0.5" stroke-width="0.756655" stroke-linecap="round" stroke-linejoin="round"/>
<path d="M143.351 113.749C147.363 120.112 142.287 112.973 143.456 111.724C144.586 110.515 145.922 112.836 146.346 113.573C147.083 114.857 147.809 118.187 146.666 114.758" stroke="#00ADB5" stroke-opacity="0.5" stroke-width="0.756655" stroke-linecap="round" stroke-linejoin="round"/>
<path d="M148.395 108.273C148.327 108.513 146.175 114.568 147.786 114.005C148.471 113.766 149.159 113.225 149.524 112.604C149.945 111.888 150.141 110.905 149.836 110.114C149.628 109.575 149.402 108.999 149.115 108.497C148.433 107.304 150.271 110.992 150.821 112.252C151.625 114.097 153.563 120.566 148.995 119.281C147.003 118.721 148.879 115.622 148.683 115.622" stroke="#00ADB5" stroke-opacity="0.5" stroke-width="0.756655" stroke-linecap="round" stroke-linejoin="round"/>
<path d="M91.6762 78.4984C92.3922 78.3015 93.0029 78.1032 93.5063 77.5368C93.7049 77.3134 93.7319 77.0283 93.8334 76.7576C93.9652 76.406 93.8011 75.9565 93.6886 75.6191C93.5987 75.3492 94.0903 75.1979 94.2659 75.1865C94.5675 75.1671 94.7982 75.3589 95.0881 75.376C95.4364 75.3965 95.808 75.5081 96.0496 75.7799C96.2136 75.9644 96.4332 76.0079 96.6144 76.1678C96.7865 76.3196 96.9224 76.5845 97.0469 76.779C97.4069 77.3415 97.5087 77.9979 97.6135 78.6413C97.6637 78.95 97.694 79.2858 97.6421 79.5975C97.5801 79.9697 97.646 80.3274 97.4991 80.6842C97.3976 80.9308 97.2351 81.2572 97.004 81.4027C96.7668 81.552 96.5463 81.6058 96.4857 81.9156C96.3591 82.5629 96.684 83.1966 96.559 83.8495C96.448 84.4292 95.6814 84.5181 95.2078 84.6108C94.8807 84.6749 94.2862 84.775 93.971 84.6037C93.384 84.2847 92.9588 83.8856 92.5233 83.3776C92.1375 82.9275 91.9917 82.2694 91.9407 81.694C91.8886 81.1066 91.8882 80.4687 91.9014 79.8746C91.9101 79.4804 92.0248 79.0845 92.0622 78.6914C92.0928 78.3697 92.1948 78.3439 92.03 78.7557" stroke="#00ADB5" stroke-opacity="0.5" stroke-width="0.378328" stroke-linecap="round" stroke-linejoin="round"/>
<path d="M95.8266 75.5709C96.0686 74.947 96.3347 74.3235 96.5201 73.68C96.6034 73.3909 96.6234 73.0847 96.7274 72.8024C96.8483 72.4744 96.908 72.1035 96.9598 71.7604C96.9969 71.5144 97.0151 71.0789 97.2404 70.924C97.4048 70.811 97.4985 70.5523 97.6747 70.4164C97.9009 70.2419 98.2222 70.0794 98.3824 69.8463C98.5398 69.6173 98.7079 69.1442 98.5755 68.8794C98.5019 68.7323 98.512 68.5737 98.4396 68.429C98.3454 68.2405 98.2608 68.0877 98.1894 67.8839C98.1269 67.7054 97.9309 67.3493 98.159 67.2226C98.7174 66.9124 98.756 67.4006 98.9293 67.8463C99.0189 68.0765 99.0324 68.3576 99.1152 68.597C99.1719 68.7608 99.2724 68.6424 99.3494 68.7364C99.4652 68.878 99.471 69.0551 99.5585 69.2082C99.6894 69.4374 99.5356 69.9025 99.4691 70.1269C99.346 70.5423 99.2192 70.9181 99.0366 71.3172C98.5664 72.3446 97.7999 73.2097 97.2743 74.2054C97.0743 74.5844 96.9142 74.9661 96.8168 75.385C96.7614 75.6233 96.5987 75.85 96.5987 76.1017C96.5987 76.3314 96.5419 76.4491 96.6631 76.0856" stroke="#00ADB5" stroke-opacity="0.5" stroke-width="0.378328" stroke-linecap="round" stroke-linejoin="round"/>
<path d="M98.3361 67.8176C97.9264 67.8804 97.4796 67.9045 97.1136 68.0875C97.0633 68.1127 97.1414 68.0471 97.1779 68.0428C97.6684 67.9851 98.204 67.5477 98.6506 67.3351C98.9828 67.1769 99.4371 66.8203 99.8159 66.8203C99.9257 66.8203 99.4515 67.1259 99.3977 67.1742" stroke="#00ADB5" stroke-opacity="0.5" stroke-width="0.378328" stroke-linecap="round" stroke-linejoin="round"/>
<path d="M97.9177 68.5254C98.3736 68.2605 99.1676 67.973 99.5012 67.5281C99.5337 67.4849 99.5576 67.4265 99.6049 67.3995C99.7705 67.3048 99.4777 67.4103 99.4297 67.4316" stroke="#00ADB5" stroke-opacity="0.5" stroke-width="0.378328" stroke-linecap="round" stroke-linejoin="round"/>
<path d="M98.2394 68.9436C98.7866 68.7341 99.7866 68.548 100.087 67.9463C100.131 67.8594 100.034 67.8819 99.9766 67.8819" stroke="#00ADB5" stroke-opacity="0.5" stroke-width="0.378328" stroke-linecap="round" stroke-linejoin="round"/>
<path d="M98.8188 68.8793C98.7839 69.6169 98.7913 70.3672 98.3702 70.999C98.1647 71.3072 98.0223 71.5121 97.9502 71.873C97.873 72.2586 97.7884 72.5806 97.6124 72.9328C97.4386 73.2802 97.2349 73.5644 97.0637 73.8979C96.9749 74.0708 96.7564 74.2374 96.7992 74.4448C96.8207 74.5496 96.7687 74.6437 96.7348 74.7415C96.6343 75.0319 96.4463 75.2879 96.2701 75.5387C96.1505 75.7089 96.152 76.0145 96.3094 75.6995" stroke="#00ADB5" stroke-opacity="0.5" stroke-width="0.378328" stroke-linecap="round" stroke-linejoin="round"/>
<path d="M96.2126 74.8307C96.503 74.8937 96.9445 75.088 97.2421 75.088C97.2476 75.088 96.9892 74.7761 96.9525 74.7342" stroke="#00ADB5" stroke-opacity="0.5" stroke-width="0.378328" stroke-linecap="round" stroke-linejoin="round"/>
<path d="M96.4057 73.512C96.8163 73.6872 97.2276 73.861 97.6354 74.0428C97.7309 74.0854 97.7254 74.0917 97.6926 74.0589C97.6219 73.9882 97.5619 73.9117 97.4995 73.8337" stroke="#00ADB5" stroke-opacity="0.5" stroke-width="0.378328" stroke-linecap="round" stroke-linejoin="round"/>
<path d="M96.7922 72.643C97.2868 72.7968 97.7806 72.9623 98.281 73.097C98.3371 73.1121 98.4154 73.1422 98.3614 73.0863C98.2536 72.9747 98.1295 72.8761 98.0147 72.7717" stroke="#00ADB5" stroke-opacity="0.5" stroke-width="0.378328" stroke-linecap="round" stroke-linejoin="round"/>
<path d="M97.0493 71.5494C97.6125 71.8246 98.173 72.1214 98.7508 72.3662C98.8457 72.4064 98.8776 72.4361 98.858 72.3608C98.8316 72.2588 98.7922 72.1625 98.7544 72.0642" stroke="#00ADB5" stroke-opacity="0.5" stroke-width="0.378328" stroke-linecap="round" stroke-linejoin="round"/>
<path d="M97.7567 70.7774C97.8079 70.802 99.3656 71.6468 99.2366 71.3243" stroke="#00ADB5" stroke-opacity="0.5" stroke-width="0.378328" stroke-linecap="round" stroke-linejoin="round"/>
<path d="M98.0784 70.2624C98.5486 70.3729 99.0236 70.4735 99.4939 70.5519" stroke="#00ADB5" stroke-opacity="0.5" stroke-width="0.378328" stroke-linecap="round" stroke-linejoin="round"/>
<path d="M98.5937 69.7477C98.8082 69.7579 99.0227 69.7685 99.2371 69.7798" stroke="#00ADB5" stroke-opacity="0.5" stroke-width="0.378328" stroke-linecap="round" stroke-linejoin="round"/>
<path d="M94.347 79.3992C94.1235 79.4879 92.7466 79.8304 92.7385 80.2106C92.7353 80.3592 92.7385 80.508 92.7563 80.6556C92.8116 81.1138 93.1305 81.3537 93.5213 81.5725C94.018 81.8507 94.5527 81.8594 95.0941 81.7012C95.6086 81.5508 95.9433 80.9816 95.7375 80.493C95.6948 80.3916 95.8426 80.3711 95.7465 80.2535C95.6529 80.1392 95.5914 80.2055 95.4408 80.2356" stroke="#00ADB5" stroke-opacity="0.5" stroke-width="0.378328" stroke-linecap="round" stroke-linejoin="round"/>
<path d="M93.6713 80.5893C93.9273 79.9417 94.2464 79.2947 94.3951 78.6108C94.434 78.4318 94.4821 78.2812 94.5792 78.1193C94.7844 77.7774 94.9649 77.4126 95.0868 77.0327C95.2024 76.6722 95.2098 76.3165 95.362 75.9639C95.4164 75.838 95.7408 75.461 95.6015 75.635" stroke="#00ADB5" stroke-opacity="0.5" stroke-width="0.378328" stroke-linecap="round" stroke-linejoin="round"/>
<path d="M96.2124 75.957C96.093 76.7021 95.9136 77.4153 95.787 78.1518C95.7168 78.56 95.6011 78.9012 95.6011 79.3314C95.6011 79.6388 95.7109 79.8953 95.6404 80.2035C95.5593 80.5586 95.4863 80.3836 95.3438 80.1392" stroke="#00ADB5" stroke-opacity="0.5" stroke-width="0.378328" stroke-linecap="round" stroke-linejoin="round"/>
<path d="M95.891 75.957C95.6673 76.4223 95.1832 77.1871 95.1832 77.7746C95.1832 78.1087 95.2048 78.4632 95.1815 78.8023C95.1537 79.2054 94.8389 79.728 94.6506 80.0749C94.5881 80.1901 94.5067 80.2789 94.4683 80.4037C94.4204 80.5596 94.4546 80.569 94.3468 80.3966" stroke="#00ADB5" stroke-opacity="0.5" stroke-width="0.378328" stroke-linecap="round" stroke-linejoin="round"/>
<path d="M93.5746 79.914C94.1225 80.306 95.0896 81.1057 95.7622 80.4144C95.8671 80.3067 96.0186 80.0766 96.0768 79.939C96.1563 79.7511 95.8989 79.9106 95.7301 79.9462" stroke="#00ADB5" stroke-opacity="0.5" stroke-width="0.378328" stroke-linecap="round" stroke-linejoin="round"/>
<path d="M94.2182 79.3347C94.5306 79.3247 95.1623 79.4091 95.4657 79.2525C95.4758 79.2473 95.4424 79.2562 95.4336 79.2633C95.4036 79.2872 95.3415 79.2481 95.312 79.2382" stroke="#00ADB5" stroke-opacity="0.5" stroke-width="0.378328" stroke-linecap="round" stroke-linejoin="round"/>
<path d="M94.572 78.1445C94.8013 78.2053 95.6311 78.5585 95.6659 78.1767" stroke="#00ADB5" stroke-opacity="0.5" stroke-width="0.378328" stroke-linecap="round" stroke-linejoin="round"/>
<path d="M94.9585 77.1794C95.2426 77.365 96.3964 78.2242 96.2132 77.3081" stroke="#00ADB5" stroke-opacity="0.5" stroke-width="0.378328" stroke-linecap="round" stroke-linejoin="round"/>
<path d="M95.2802 76.7291C95.5697 76.8042 95.8593 76.8792 96.1488 76.9543" stroke="#00ADB5" stroke-opacity="0.5" stroke-width="0.378328" stroke-linecap="round" stroke-linejoin="round"/>
<path d="M96.6951 76.7291C97.0531 77.0663 97.7679 77.8512 97.789 78.4413C97.8061 78.9226 97.789 79.388 97.789 79.8747C97.789 80.2288 97.8566 80.6067 97.8211 80.9435C97.7746 81.3854 97.0958 81.3911 97.2581 81.9104C97.3123 82.0838 97.2651 82.1863 97.4172 82.3108C97.5484 82.4181 97.6438 82.5426 97.6924 82.7129C97.806 83.1103 97.5797 83.469 97.3064 83.7424C97.1352 83.9135 96.9131 84.2575 96.7112 84.3697C96.6114 84.4252 96.4074 84.3858 96.293 84.3858C96.187 84.3858 95.9726 84.4548 95.8766 84.4984C95.7354 84.5626 95.5556 84.4492 95.3761 84.5145" stroke="#00ADB5" stroke-opacity="0.5" stroke-width="0.378328" stroke-linecap="round" stroke-linejoin="round"/>
<path d="M91.6762 78.5949C91.8059 79.0256 91.9024 79.3841 92.1194 79.753C92.2086 79.9047 92.1963 80.0423 92.1569 80.2195C92.1112 80.4255 91.9607 80.9086 92.0783 81.1203C92.259 81.4455 92.2552 81.7897 92.2552 82.1497C92.2552 82.4967 92.7977 82.6475 92.9755 82.8253C93.2397 83.0895 93.1251 83.4269 93.5599 83.542C93.655 83.5672 93.8037 83.5687 93.8781 83.6296C93.9345 83.6758 94.0005 83.7913 94.0747 83.8048C94.2278 83.8326 94.4331 83.8022 94.5715 83.8637C94.6872 83.9151 94.7716 83.9892 94.8772 84.0478C94.9935 84.1125 95.1525 84.0398 95.2793 84.1032C95.7119 84.3196 95.5186 84.1138 95.215 83.8709" stroke="#00ADB5" stroke-opacity="0.5" stroke-width="0.378328" stroke-linecap="round" stroke-linejoin="round"/>
<path d="M59.6622 62.4368C58.8025 63.5367 55.1114 67.9384 58.2565 68.9343C59.2325 69.2434 60.5029 68.5328 61.555 68.6354C63.0425 68.7805 63.8788 70.0452 64.2448 71.3584C64.6662 72.8706 62.341 75.5597 63.4589 76.3727C65.3734 77.765 68.1307 75.4105 69.7129 77.2803C70.6095 78.34 69.6666 79.8797 70.2221 77.3799" stroke="#00ADB5" stroke-opacity="0.5" stroke-width="0.378328" stroke-linecap="round" stroke-linejoin="round"/>
<path d="M102.835 45.302C103.664 46.3998 105.636 48.8729 106.377 50.283C107.008 51.4833 106.213 51.4352 105.536 50.9582C104.726 50.3879 104.84 49.175 105.071 48.3349C105.851 45.4988 110.899 42.8914 111.469 47.2501C111.669 48.7811 110.301 51.3555 108.436 50.7479C105.974 49.9459 106.131 46.1891 107.993 44.7928C109.898 43.3646 113.019 45.0057 113.019 47.3387C113.019 49.9288 109.94 50.7307 108.746 48.4456C107.661 46.3687 109.584 44.1961 111.646 43.8851C112.405 43.7708 114.364 44.6469 112.996 45.1027" stroke="#00ADB5" stroke-opacity="0.5" stroke-width="0.378328" stroke-linecap="round" stroke-linejoin="round"/>
<path d="M144.476 65.0271C143.186 66.3091 139.109 69.2981 142.539 70.462C144.535 71.1392 146.383 70.0289 147.62 68.5139C148.985 66.842 149.216 64.1981 147.044 63.1122C145.355 62.2676 143.9 60.9111 142.484 63.0347" stroke="#00ADB5" stroke-opacity="0.5" stroke-width="0.378328" stroke-linecap="round" stroke-linejoin="round"/>
<path d="M188.509 82.5603C186.045 84.0278 182.305 85.8004 186.118 87.1872C186.704 87.4003 187.086 87.2616 187.602 86.8994C189.508 85.5598 189.62 85.0232 189.505 82.9588C189.429 81.5919 187.431 81.9042 186.517 82.3611C185.169 83.0349 184.229 84.3835 183.683 85.7482C182.949 87.5845 186.746 87.4722 187.269 85.2612C187.598 83.8751 186.012 81.9061 184.923 83.6008C183.479 85.8461 185.682 87.8541 187.07 85.5047C188.4 83.2545 185.293 82.3264 184.458 84.9512C183.36 88.4023 189.887 84.6552 187.513 83.468C186.098 82.7604 183.708 87.254 186.318 86.1356C189.486 84.7777 185.941 82.7765 185.941 85.9475C185.941 88.5207 190.197 84.7862 187.424 83.7779C186.79 83.5474 186.165 85.5732 186.616 86.0249C187.402 86.8105 188.767 84.7761 188.697 84.0436C188.398 80.8993 185.32 88.8931 188.985 85.228C189.822 84.3907 189.788 82.8775 188.398 83.7669C187.578 84.2917 187.06 86.5192 188.609 86.0028C190.096 85.5069 190.096 82.7513 188.498 83.3905C187.523 83.7807 187.169 85.1615 186.118 84.9512" stroke="#00ADB5" stroke-opacity="0.5" stroke-width="0.378328" stroke-linecap="round" stroke-linejoin="round"/>
<path d="M166.991 103.082C166.58 103.536 160.014 111.637 163.316 107.51C164.071 106.566 164.764 105.638 165.795 104.975C166.431 104.567 167.043 104.314 167.588 103.769C168.185 103.172 167.339 103.211 167.201 104.455C167.081 105.538 167.173 110.266 166.991 110.255C165.76 110.183 164.953 108.971 163.814 108.572C163.204 108.359 161.394 108.666 161.899 108.263C163.133 107.275 166.913 104.444 165.795 105.562C164.949 106.408 163.209 109.59 163.803 108.55C164.225 107.811 165.368 105.402 165.197 105.805C164.847 106.635 164.238 108.056 164.29 108.971C164.339 109.839 166.064 107.703 166.172 107.488C166.971 105.889 165.317 109.485 165.906 108.628C166.436 107.856 168.23 105.894 166.946 107.82C166.665 108.241 168.276 106.297 167.987 106.713C167.903 106.834 167.173 108.058 167.599 107.632C169.127 106.104 166.876 107.692 166.592 107.266" stroke="#00ADB5" stroke-opacity="0.5" stroke-width="0.378328" stroke-linecap="round" stroke-linejoin="round"/>
<path d="M153.641 136.157C154.338 135.163 158.324 130.782 155.047 130.589C154.493 130.556 153.351 130.376 152.888 130.755C151.788 131.655 152.265 134.082 153.752 134.352C155.723 134.711 157.57 132.015 155.434 130.976C153.203 129.891 147.936 134.251 150.209 136.046C154.686 139.58 158.734 129.31 152.943 130.788C147.691 132.129 152.318 137.539 154.703 134.053C157.257 130.321 149.383 130.289 150.774 134.463C151.46 136.522 153.712 135.528 154.117 133.865C154.71 131.428 152.285 132.434 152.246 134.12C152.204 135.926 154.988 132.658 153.32 132.803C152.115 132.907 151.996 134.563 151.051 134.563" stroke="#00ADB5" stroke-opacity="0.5" stroke-width="0.378328" stroke-linecap="round" stroke-linejoin="round"/>
<path d="M74.3429 117.428C74.7453 119.253 75.5383 124.776 75.5383 122.907C75.5383 121.616 74.5525 120.412 74.354 119.121C74.2846 118.67 74.4277 117.336 74.044 117.029C73.7815 116.819 76.2626 118.75 76.922 119.121C78.1252 119.798 78.9876 121.062 80.0324 119.719C80.534 119.074 82.0096 118.985 82.213 118.822C83.6883 117.642 83.5529 115.881 83.8954 114.339C84.0176 113.79 83.7073 116.216 83.7073 116.93C83.7073 117.842 83.872 119.05 84.1168 119.907C84.4645 121.124 84.3253 117.69 83.9951 117.029C83.4586 115.956 83.508 115.004 83.508 113.841C83.508 113.382 86.8387 119.136 86.2531 119.575C86.0084 119.759 82.7469 118.859 81.7591 119.177C80.9083 119.45 80.1309 119.769 79.3239 120.173C79.1033 120.283 78.7393 120.685 78.8812 120.571C79.387 120.167 80.9347 119.06 80.3202 119.265C79.476 119.547 78.6468 120.363 77.885 120.815C76.449 121.666 75.9844 121.547 75.3834 123.006C75.2968 123.217 76.3687 123.19 76.5788 123.25C78.0867 123.681 79.0343 122.506 80.3644 121.966C82.0812 121.269 84.0553 119.836 85.8989 119.619C87.2907 119.456 85.1746 118.968 85.102 118.822" stroke="#00ADB5" stroke-opacity="0.5" stroke-width="0.378328" stroke-linecap="round" stroke-linejoin="round"/>
<path d="M150.453 40.7198C154.208 39.5161 160.29 38.1317 163.648 35.3845C164.257 34.8861 165.201 34.4082 164.987 33.4475C164.185 29.8382 162.44 28.9917 158.999 29.3741C157.09 29.5861 155.258 31.3467 153.486 32.0638C151.662 32.8021 149.837 33.7722 148.173 34.8311C146.489 35.9028 147.465 36.4337 147.465 38.2846C147.465 39.3024 148.073 40.7198 149.158 40.7198C149.653 40.7198 151.072 40.3213 149.668 40.3213C148.566 40.3213 146.855 40.4883 145.871 39.9671C145.119 39.5691 146.603 38.7855 146.956 38.7385C148.215 38.5706 145.513 39.8024 145.24 39.8896C144.679 40.0691 147.264 38.1105 145.827 38.5724C144.269 39.0731 146.581 37.7305 147.066 37.4877C147.615 37.2136 147.136 37.6475 147.266 37.4212C147.472 37.0592 148.67 35.7291 147.587 36.8124C147.224 37.1751 148.405 36.1939 148.804 35.8716C149.556 35.2646 148.602 36.1855 148.417 36.3365C147.562 37.0321 147.362 36.4708 146.668 36.7792C146.378 36.9082 145.672 37.3358 145.672 36.8346C145.672 35.9698 148.723 35.5759 149.28 35.5506C152.693 35.3955 155.081 33.89 158.224 33.1043C159.736 32.7262 161.389 32.1817 162.806 31.5104C163.858 31.0125 165.963 29.4537 167.079 29.7726C167.518 29.8978 160.752 33.8345 162.696 32.5509C164.304 31.4891 166.148 30.7435 163.736 32.7391C161.805 34.3377 165.203 32.4756 165.474 32.5841C165.961 32.779 162.474 34.7707 165.131 33.5471C166.147 33.0791 166.991 33.056 166.991 31.9532C166.991 30.4561 167.4 28.6817 165.496 29.3741C163.299 30.173 161.536 31.8806 159.264 32.5509C157.698 33.013 156.173 33.5965 154.638 34.1448C152.856 34.781 149.632 35.4925 148.361 37.0449C147.684 37.8723 146.479 41.0966 148.97 39.7015C151.256 38.4216 151.619 35.8322 152.844 33.7906C153.453 32.7766 151.784 35.9324 151.538 37.0892C151.256 38.4196 152.507 39.9506 153.94 39.7015C155.512 39.4282 157.165 37.2579 157.726 35.938C160.422 29.594 155.531 35.7471 156.918 37.1334C158.389 38.6048 160.631 34.7072 160.925 33.7463C161.278 32.5886 161.486 31.1616 161.91 30.0604C162.459 28.6321 158.952 30.2407 158.622 30.4035C156.798 31.3051 155.524 32.5077 154.283 34.1005C153.834 34.6771 152.031 37.3909 153.265 38.0079C154.919 38.8348 156.949 36.2646 156.995 34.9307C157.151 30.4123 153.431 32.728 151.184 34.499C149.796 35.5934 151.002 37.7805 151.25 37.5319" stroke="#00ADB5" stroke-opacity="0.5" stroke-width="0.378328" stroke-linecap="round" stroke-linejoin="round"/>
<path d="M100.046 148.709C99.959 148.778 96.6805 151.606 96.6805 150.801C96.6805 150.329 97.0433 149.825 97.3668 149.517C98.0063 148.908 100.532 148.439 99.9238 149.926C99.5157 150.924 97.8481 152.394 97.3779 150.513C97.1826 149.732 98.5232 148.165 99.3371 148.83C100.235 149.565 98.305 150.5 97.6989 150.17C96.6162 149.579 97.9164 147.477 98.9608 147.912C100.053 148.367 98.5509 149.611 98.0531 149.86C96.8895 150.442 97.0523 149.501 96.4592 148.908" stroke="#00ADB5" stroke-opacity="0.5" stroke-width="0.378328" stroke-linecap="round" stroke-linejoin="round"/>
<path d="M46.0505 148.51C47.199 150.402 49.3864 152.366 47.1574 154.088C46.5824 154.533 43.1907 156.309 43.3939 154.243C43.6413 151.728 47.3902 151.672 47.6222 149.417C47.8518 147.188 42.5267 148.028 41.3129 146.517C40.5525 145.571 39.9393 143.474 40.1175 142.267C40.1868 141.796 41.3792 140.884 41.2576 141.735C41.0349 143.294 36.0088 147.287 38.9884 148.598C40.9861 149.477 41.5015 147.252 42.9733 146.716C46.0048 145.614 41.4679 153.79 41.4679 151.697" stroke="#00ADB5" stroke-opacity="0.5" stroke-width="0.378328" stroke-linecap="round" stroke-linejoin="round"/>
<path d="M143.679 174.411C142.756 176.595 140.889 183.323 140.889 180.953C140.889 180.583 140.961 180.291 141.089 179.945C141.688 178.322 142.383 176.812 143.391 175.385C143.941 174.606 144.597 172.326 145.383 174.057C145.75 174.864 146.8 177.112 146.357 177.997C145.802 179.109 144.077 179.746 142.926 179.791C142.626 179.802 139.483 180.215 140.502 179.281C141.699 178.184 142.857 174.847 144.664 174.621C144.943 174.586 145.526 174.773 145.771 174.909C146.202 175.149 145.677 175.582 145.472 175.916C145.226 176.317 143.284 179.027 143.28 178.905C143.225 177.089 145.088 174.453 146.092 173.083C146.452 172.591 144.536 175.927 144.099 176.68C143.761 177.263 144.202 178.501 142.682 178.197" stroke="#00ADB5" stroke-opacity="0.5" stroke-width="0.378328" stroke-linecap="round" stroke-linejoin="round"/>
<path d="M81.9142 14.2203C81.0254 17.698 80.2332 21.0115 79.9108 24.5588C79.8785 24.9136 79.6542 25.143 79.8775 25.4222C80.2099 25.8376 81.089 23.1961 81.4272 22.4889C82.4993 20.2472 83.7074 19.3625 83.7074 16.6112C83.7074 16.2143 83.7074 13.9293 83.7074 15.4379C83.7074 16.7187 83.9501 17.9845 83.8624 19.2678C83.7961 20.2377 82.865 22.8553 83.5525 22.1679C84.6135 21.1068 83.7634 15.7867 82.1024 15.6482C79.8352 15.4593 78.7419 20.3736 78.4829 21.9022C78.1814 23.6808 79.4353 24.4254 80.8184 23.0423C82.7062 21.1545 83.1156 17.2734 81.4936 15.0616C79.2652 12.0229 77.8029 17.5057 77.6195 18.8472C77.2045 21.8816 78.8993 22.854 80.907 20.6957C81.6454 19.9019 83.1342 18.5293 82.8219 17.2975C82.4065 15.659 79.9847 17.2501 79.5012 17.9617C78.8156 18.9707 78.8245 21.4839 79.9329 22.2011C80.9677 22.8707 81.9748 20.0961 81.8589 19.4006C81.3673 16.4511 75.8074 21.1334 78.5714 22.8099C80.977 24.269 82.5717 17.7411 79.6119 18.5483C78.7876 18.7731 76.8301 20.9946 78.5271 20.9946" stroke="#00ADB5" stroke-opacity="0.5" stroke-width="0.378328" stroke-linecap="round" stroke-linejoin="round"/>
<path d="M29.1146 71.0047C28.2193 73.5414 27.5747 75.1605 25.3069 76.5834C24.7375 76.9407 23.985 77.5727 23.8679 78.2881C23.6178 79.8165 26.0287 81.501 27.3989 81.0443C30.286 80.0819 25.9172 77.2245 25.4508 76.3953C24.6387 74.9515 27.5739 72.358 28.9265 73.1188C29.9793 73.7111 30.446 75.7749 29.8231 76.7827C28.9155 78.2508 26.9649 78.3088 25.4397 78.0778C24.2251 77.8937 21.7922 78.1439 22.5064 79.9484C23.4002 82.2064 27.6185 81.023 28.2513 79.1072C28.8673 77.242 25.5323 76.5392 26.2478 74.7903C26.7392 73.589 28.291 72.0894 29.6681 72.0894C31.3176 72.0894 29.6703 75.1707 29.4246 75.6537C28.3394 77.7865 26.6791 77.9993 24.5763 78.5759C20.6188 79.661 24.8822 79.8137 25.1298 78.5759" stroke="#00ADB5" stroke-opacity="0.5" stroke-width="0.378328" stroke-linecap="round" stroke-linejoin="round"/>
<path d="M24.3337 98.3006C23.9107 99.8933 22.6602 102.611 22.784 104.344C22.842 105.156 23.0638 102.74 23.1604 101.931C23.3443 100.391 23.5546 98.6516 24.378 97.3044C24.5241 97.0653 27.9033 101.283 28.2078 101.976C29.0229 103.828 28.0025 103.475 26.7246 104.079C26.0144 104.414 21.1679 106.125 21.1679 105.673C21.1679 105.199 22.0816 104.236 22.297 103.835C22.9711 102.581 23.6944 101.006 23.9795 99.6067C24.5884 96.6176 24.1344 102.769 24.1344 103.237C24.1344 103.522 24.2449 105.186 23.581 105.186C22.75 105.186 24.1427 103.621 24.4222 102.839C24.7186 102.009 25.8983 99.5632 25.6066 98.688C25.1934 97.4485 24.9867 101.245 24.9425 102.551C24.9125 103.436 24.4842 104.914 25.1749 103.481C25.395 103.024 26.1055 101.153 26.0936 101.289C25.9935 102.441 25.5291 103.629 25.5291 104.787C25.5291 105.973 26.1545 102.156 27.2338 101.666C27.5021 101.544 27.1231 103.793 27.1231 104.123C27.1231 104.723 27.6987 101.819 27.6987 102.418C27.6987 102.585 27.4598 103.596 27.278 103.282C26.5329 101.995 25.9723 101.199 24.4444 100.736C23.7485 100.525 21.5366 100.669 22.2638 100.669C22.7418 100.669 23.4925 99.006 24.0237 99.4407C24.7286 100.017 23.7613 101.858 23.5367 102.485C23.169 103.51 22.9388 102.068 23.8466 102.175C24.7925 102.286 23.8275 105.779 24.3558 104.986C24.601 104.618 25.3438 102.804 25.3188 103.016C24.8365 107.115 24.9369 101.895 25.7284 103.082" stroke="#00ADB5" stroke-opacity="0.5" stroke-width="0.378328" stroke-linecap="round" stroke-linejoin="round"/>
<path d="M122.958 44.1067C125.493 43.9816 127.941 44.9187 127.54 41.9151C127.342 40.4267 126.508 37.9935 126.942 36.5355C127.404 34.9877 130.238 31.4968 127.817 30.4033C125.786 29.4864 123.133 32.0794 122.758 33.8347C122.603 34.5648 122.636 36.8455 123.843 36.8455C124.755 36.8455 125.338 35.9497 126.134 36.7459C127.175 37.7866 127.361 38.736 126.621 40.0444C124.846 43.185 117.824 39.6771 121.607 35.8935C122.126 35.3749 124.177 32.9965 125.149 33.6797C126.487 34.6197 126.306 37.0669 125.614 38.2844C124.924 39.4986 122.392 40.7699 121.397 39.2142C120.905 38.4455 121.14 37.9302 121.961 37.9302" stroke="#00ADB5" stroke-opacity="0.5" stroke-width="0.378328" stroke-linecap="round" stroke-linejoin="round"/>
<path d="M144.184 62.7525C144.418 62.658 151.707 59.0597 151.368 61.0368C151.186 62.0979 151.307 63.0875 151.456 64.1472C151.513 64.5526 152.501 67.7114 151.512 67.7114C149.667 67.7114 147.868 66.7853 146.021 67.1358C145.256 67.2812 143.732 67.8056 143.675 66.5824C143.632 65.6652 142.87 61.5418 144.682 61.9445C146.175 62.2763 146.24 61.0911 145.18 63.7266C145.03 64.1007 144.04 66.9118 144.206 66.7816C145.863 65.4794 146.773 62.9754 148.29 61.4574C149.238 60.5095 147.613 64.3139 147.416 64.7892C146.407 67.2173 148.985 62.7314 149.276 62.2876C150.55 60.339 149.582 63.8276 149.386 64.4018C148.797 66.1281 150.609 62.9046 151.334 62.4758C153.739 61.0549 151.467 65.9625 150.958 64.9442" stroke="#00ADB5" stroke-opacity="0.5" stroke-width="0.378328" stroke-linecap="round" stroke-linejoin="round"/>
<path d="M124.552 100.293C124.667 103.222 124.615 104.819 127.098 102.972C127.802 102.448 127.503 103.688 127.33 103.99C127.042 104.495 125.35 107.033 127.054 106.06C127.485 105.814 128.648 105.322 128.648 106.27C128.648 106.42 128.126 108.253 128.637 107.742C129.473 106.906 129.488 103.754 129.533 102.529C129.543 102.262 129.66 101.95 129.422 102.086C128.201 102.784 127.621 106.438 126.987 107.864C126.44 109.096 124.862 107.645 123.954 107.067C122.234 105.972 123.316 106.75 123.357 106.669" stroke="#00ADB5" stroke-opacity="0.5" stroke-width="0.378328" stroke-linecap="round" stroke-linejoin="round"/>
<path d="M110.805 126.394C110.798 126.487 110.564 132.206 110.606 129.427C110.619 128.578 110.594 127.729 110.606 126.881C110.639 124.471 111.069 125.589 112.111 126.582C112.589 127.037 114.342 128.02 114.059 128.94C113.976 129.211 111.161 129.701 110.717 129.87C110.383 129.996 108.414 131.236 108.414 131.176C108.414 129.695 108.936 128.093 109.112 126.615C109.484 123.486 111.649 131.863 111.79 129.748C111.823 129.25 111.801 126.286 111.801 127.025C111.801 127.575 112.2 130.51 112.2 128.586C112.2 128.15 112.2 127.715 112.2 127.279C112.2 127.074 112.312 128.057 112.388 127.866C112.664 127.176 112.2 125.788 112.2 127.479C112.2 129.376 111.668 128.01 110.506 128.01C109.513 128.01 108.943 131.651 109.455 130.799C109.902 130.053 109.02 127.014 109.41 128.575C109.615 129.391 110.105 128.489 110.407 128.187" stroke="#00ADB5" stroke-opacity="0.5" stroke-width="0.378328" stroke-linecap="round" stroke-linejoin="round"/>
<path fill-rule="evenodd" clip-rule="evenodd" d="M109.859 105.396C108.935 105.059 108.055 104.566 107.252 103.882C101.19 98.717 103.789 90.925 107.458 86.8683C111.127 82.8116 133.57 84.4297 122.982 103.223C122.938 103.249 122.893 103.276 122.846 103.304C121.663 107.07 122.661 110.301 123.859 114.177C124.347 115.758 124.869 117.446 125.289 119.322L114.061 118.518C110.974 114.327 109.804 110.102 109.859 105.396Z" fill="#F5B9AB"/>
<path d="M107.252 103.882L107.08 104.083L107.08 104.083L107.252 103.882ZM109.859 105.396L109.95 105.147C110.055 105.186 110.125 105.287 110.124 105.399L109.859 105.396ZM107.458 86.8683L107.262 86.6908L107.262 86.6908L107.458 86.8683ZM122.982 103.223L123.213 103.353C123.191 103.392 123.158 103.426 123.119 103.449L122.982 103.223ZM122.846 103.304L122.594 103.224C122.614 103.162 122.656 103.109 122.712 103.075L122.846 103.304ZM123.859 114.177L123.606 114.255L123.606 114.255L123.859 114.177ZM125.289 119.322L125.547 119.264C125.566 119.346 125.544 119.432 125.49 119.495C125.435 119.558 125.354 119.592 125.27 119.586L125.289 119.322ZM114.061 118.518L114.042 118.782C113.964 118.776 113.893 118.737 113.847 118.675L114.061 118.518ZM107.423 103.68C108.201 104.343 109.053 104.82 109.95 105.147L109.769 105.644C108.817 105.297 107.909 104.789 107.08 104.083L107.423 103.68ZM107.654 87.0458C105.851 89.0401 104.312 91.9522 103.969 94.9892C103.627 98.0139 104.468 101.162 107.423 103.68L107.08 104.083C103.974 101.437 103.084 98.1063 103.443 94.9297C103.801 91.7653 105.396 88.7532 107.262 86.6908L107.654 87.0458ZM122.752 103.093C125.381 98.4262 125.933 94.8725 125.282 92.2318C124.634 89.5983 122.775 87.8153 120.453 86.716C118.127 85.615 115.353 85.2104 112.934 85.3337C111.725 85.3954 110.612 85.5884 109.694 85.8871C108.772 86.1874 108.069 86.587 107.654 87.0458L107.262 86.6908C107.764 86.1353 108.565 85.6981 109.531 85.3839C110.501 85.068 111.661 84.8687 112.907 84.8052C115.396 84.6783 118.259 85.0922 120.679 86.2377C123.103 87.385 125.1 89.2767 125.796 92.1053C126.491 94.9267 125.878 98.6227 123.213 103.353L122.752 103.093ZM122.712 103.075C122.758 103.049 122.802 103.022 122.846 102.996L123.119 103.449C123.074 103.477 123.027 103.504 122.98 103.532L122.712 103.075ZM123.606 114.255C122.411 110.39 121.382 107.081 122.594 103.224L123.099 103.383C121.943 107.059 122.91 110.212 124.111 114.099L123.606 114.255ZM125.031 119.38C124.613 117.516 124.095 115.837 123.606 114.255L124.111 114.099C124.6 115.679 125.124 117.377 125.547 119.264L125.031 119.38ZM114.079 118.254L125.308 119.058L125.27 119.586L114.042 118.782L114.079 118.254ZM110.124 105.399C110.069 110.052 111.224 114.22 114.274 118.361L113.847 118.675C110.725 114.434 109.539 110.153 109.595 105.393L110.124 105.399Z" fill="black"/>
<path d="M124.998 91.8739C126.755 94.3185 124.863 100.356 123.466 101.866C135.037 95.4463 127.712 80.9613 124.142 83.6027C123.56 78.2474 117.415 76.3579 113.226 80.8871C102.723 72.4057 102.171 86.8578 105.878 89.0556C109.585 91.2534 114.082 89.1604 116.416 90.2938C118.75 91.4271 120.191 98.2923 120.947 94.482C121.703 90.6717 122.802 88.8182 124.998 91.8739Z" fill="#00ADB5" stroke="black" stroke-width="0.529231"/>
<path d="M135.382 198.513L119.095 197.331L123.015 153.492C123.015 153.492 104.119 108.713 120.34 108.713C143.259 108.713 150.923 144.025 150.638 153.492C150.352 162.958 135.382 198.513 135.382 198.513Z" fill="#EEEEEE" stroke="black" stroke-width="0.529231"/>
<path d="M118.972 199.227L119.2 197.247L135.601 197.906L135.239 201.087C134.655 206.23 129.503 209.547 124.579 207.95C120.872 206.748 118.526 203.099 118.972 199.227Z" fill="#F5B9AB" stroke="black" stroke-width="0.529231" stroke-linejoin="round"/>
<path d="M95.3321 166.965C84.7379 156.693 97.9037 122.668 100.051 118.619C103.177 112.849 112.561 102.81 125.084 108.82C144.022 117.907 135.368 162.871 131.964 178.457L95.3321 166.965Z" fill="#EEEEEE" stroke="black" stroke-width="0.529231"/>
<path d="M12.8351 202.624L11.1279 187.192C11.1279 187.192 50.7651 174.346 83.4324 169.526L128.286 173.4C135.024 189.322 131.701 218.582 81.7294 205.13L12.8351 202.624Z" fill="#00ADB5" stroke="black" stroke-width="0.529231"/>
<path fill-rule="evenodd" clip-rule="evenodd" d="M60.8659 175.586L53.8234 197.489L39.0473 196.767L32.3053 155.906C31.1883 149.137 36.4108 142.982 43.2716 142.982L52.4129 142.982L53.0445 141.995L56.1131 142.982C58.5663 142.985 60.7875 143.765 62.5878 145.065L124.68 165.038C134.283 168.127 138.603 179.277 133.587 188.029L124.088 204.605C119.157 213.209 107.629 215.231 100.064 208.818L60.8659 175.586Z" fill="#00ADB5"/>
<path d="M60.8659 175.586L61.037 175.384L60.7351 175.128L60.614 175.505L60.8659 175.586ZM53.8234 197.489L53.8105 197.754L54.0132 197.763L54.0753 197.57L53.8234 197.489ZM39.0473 196.767L38.7862 196.811L38.821 197.021L39.0344 197.032L39.0473 196.767ZM32.3053 155.906L32.5663 155.863L32.5663 155.863L32.3053 155.906ZM43.2716 142.982L43.2716 142.717H43.2716L43.2716 142.982ZM52.4129 142.982L52.4129 143.247L52.5578 143.247L52.6358 143.125L52.4129 142.982ZM53.0445 141.995L53.1255 141.743L52.9315 141.681L52.8216 141.852L53.0445 141.995ZM56.1131 142.982L56.032 143.234L56.0714 143.247L56.1128 143.247L56.1131 142.982ZM62.5878 145.065L62.4329 145.279L62.4669 145.304L62.5067 145.317L62.5878 145.065ZM124.68 165.038L124.599 165.29L124.599 165.29L124.68 165.038ZM133.587 188.029L133.357 187.897L133.357 187.897L133.587 188.029ZM124.088 204.605L123.858 204.473L123.858 204.473L124.088 204.605ZM100.064 208.818L99.8932 209.02L99.8932 209.02L100.064 208.818ZM60.614 175.505L53.5715 197.408L54.0753 197.57L61.1178 175.667L60.614 175.505ZM53.8363 197.225L39.0602 196.503L39.0344 197.032L53.8105 197.754L53.8363 197.225ZM39.3084 196.724L32.5663 155.863L32.0442 155.949L38.7862 196.811L39.3084 196.724ZM32.5663 155.863C31.476 149.255 36.5741 143.247 43.2716 143.247L43.2716 142.717C36.2474 142.717 30.9007 149.019 32.0442 155.949L32.5663 155.863ZM43.2716 143.247L52.4129 143.247L52.4129 142.717L43.2716 142.717L43.2716 143.247ZM52.6358 143.125L53.2674 142.138L52.8216 141.852L52.19 142.839L52.6358 143.125ZM52.9635 142.247L56.032 143.234L56.1941 142.73L53.1255 141.743L52.9635 142.247ZM56.1128 143.247C58.5087 143.249 60.6761 144.011 62.4329 145.279L62.7426 144.85C60.8989 143.519 58.6239 142.72 56.1134 142.717L56.1128 143.247ZM62.5067 145.317L124.599 165.29L124.762 164.787L62.6688 144.813L62.5067 145.317ZM124.599 165.29C134.042 168.328 138.289 179.291 133.357 187.897L133.817 188.16C138.916 179.262 134.525 167.927 124.762 164.787L124.599 165.29ZM133.357 187.897L123.858 204.473L124.317 204.736L133.817 188.16L133.357 187.897ZM123.858 204.473C119.01 212.934 107.674 214.922 100.235 208.616L99.8932 209.02C107.584 215.54 119.304 213.484 124.317 204.736L123.858 204.473ZM100.235 208.616L61.037 175.384L60.6948 175.788L99.8932 209.02L100.235 208.616Z" fill="black"/>
<path d="M38.8769 196.601L53.9864 197.494L55.158 210.179C55.158 210.179 41.9026 209.794 33.8618 207.279L39.2664 204.623L38.8769 196.601Z" fill="#EEEEEE" stroke="black" stroke-width="0.529231" stroke-linejoin="round"/>
<rect width="36.9902" height="6.93567" rx="0.759975" transform="matrix(0.258819 0.965926 0.965926 -0.258819 33.7852 104.138)" fill="#EEEEEE" stroke="black" stroke-width="0.529231"/>
<rect width="36.9902" height="6.93567" rx="0.759975" transform="matrix(-1 0 0 1 78.8799 136.251)" fill="#00ADB5" stroke="black" stroke-width="0.529231"/>
<path d="M11.2456 187.203L13.1144 202.632L1.836 205.745C1.836 205.745 -0.288931 192.451 0.740775 183.959L4.46554 188.853L11.2456 187.203Z" fill="#EEEEEE" stroke="black" stroke-width="0.529231" stroke-linejoin="round"/>
<path d="M67.2534 147.297L75.7173 133.194L101.668 147.325C100.478 131.017 111.672 107.547 123.426 108.976C144.047 111.484 128.855 162.312 115.347 171.271C101.839 180.23 67.2534 147.297 67.2534 147.297Z" fill="#EEEEEE"/>
<path d="M131.637 140.17C128.446 153.543 121.71 167.051 115.347 171.271C101.839 180.23 67.2538 147.297 67.2538 147.297L75.7178 133.194L101.669 147.325L110.489 125.197" stroke="black" stroke-width="0.529231"/>
<path d="M74.1769 132.124L75.7978 133.283L67.2706 147.308L64.6638 145.45C60.4488 142.446 60.0453 136.332 63.8289 132.8C66.6776 130.14 71.0064 129.857 74.1769 132.124Z" fill="#F5B9AB" stroke="black" stroke-width="0.529231" stroke-linejoin="round"/>
<ellipse cx="66.1207" cy="210.245" rx="65.829" ry="4.53993" fill="black" fill-opacity="0.5"/>
</svg>
